<svg width="351" height="85" viewBox="0 0 351 85" fill="none" xmlns="http://www.w3.org/2000/svg">
<rect x="0.480469" y="4.28503" width="350" height="80" rx="20" fill="#925111"/>
<path d="M0.480469 30.9567C0.480469 16.8145 0.480469 9.74346 4.87387 5.35006C9.26727 0.956665 16.3383 0.956665 30.4805 0.956665H320.48C334.623 0.956665 341.694 0.956665 346.087 5.35006C350.48 9.74346 350.48 16.8145 350.48 30.9567V50.9567C350.48 65.0988 350.48 72.1699 346.087 76.5633C341.694 80.9567 334.623 80.9567 320.48 80.9567H30.4805C16.3383 80.9567 9.26727 80.9567 4.87387 76.5633C0.480469 72.1699 0.480469 65.0988 0.480469 50.9567V30.9567Z" fill="url(#paint0_linear_1018_536)"/>
<defs>
<linearGradient id="paint0_linear_1018_536" x1="-19.1669" y1="37.4219" x2="396.894" y2="38.0176" gradientUnits="userSpaceOnUse">
<stop offset="0.0576923" stop-color="#FF9417"/>
<stop offset="0.225962" stop-color="#FFCB8E"/>
<stop offset="0.456731" stop-color="#FFAD4D"/>
<stop offset="0.759615" stop-color="#FFD09A"/>
<stop offset="1" stop-color="#FF9417"/>
</linearGradient>
</defs>
</svg>
