<svg width="883" height="183" viewBox="0 0 883 183" fill="none" xmlns="http://www.w3.org/2000/svg">
<path d="M38.8039 80.0869C26.5906 80.0869 17.6039 77.4469 11.8439 72.1669C6.08391 66.8336 3.20391 59.3669 3.20391 49.7669C3.20391 40.2736 6.05724 32.8603 11.7639 27.5269C17.5239 22.1936 26.5372 19.5269 38.8039 19.5269C51.1239 19.5269 60.1372 22.1936 65.8439 27.5269C71.6039 32.8603 74.4839 40.2736 74.4839 49.7669C74.4839 59.4203 71.6306 66.8869 65.9239 72.1669C60.2172 77.4469 51.1772 80.0869 38.8039 80.0869ZM38.8039 63.7669C44.7239 63.7669 48.9906 62.6469 51.6039 60.4069C54.2172 58.1136 55.5239 54.5669 55.5239 49.7669C55.5239 45.0736 54.2172 41.5803 51.6039 39.2869C48.9906 36.9936 44.7239 35.8469 38.8039 35.8469C32.9372 35.8469 28.6972 36.9936 26.0839 39.2869C23.4706 41.5803 22.1639 45.0736 22.1639 49.7669C22.1639 54.5136 23.4706 58.0336 26.0839 60.3269C28.6972 62.6203 32.9372 63.7669 38.8039 63.7669ZM114.78 43.0469C122.087 43.0469 127.82 43.8203 131.98 45.3669C136.14 46.8603 139.047 48.9403 140.7 51.6069C142.353 54.2736 143.18 57.5536 143.18 61.4469C143.18 67.1003 141.1 71.4736 136.94 74.5669C132.78 77.6603 125.393 79.2069 114.78 79.2069H100.54V79.2869H80.8602C81.2868 68.9403 81.5002 59.2603 81.5002 50.2469C81.5002 41.2336 81.2868 31.5536 80.8602 21.2069H139.82V37.2869H100.54V43.0469H114.78ZM111.58 65.3669C115.26 65.3669 118.033 65.2336 119.9 64.9669C121.82 64.7003 123.153 64.2736 123.9 63.6869C124.7 63.1003 125.1 62.2203 125.1 61.0469C125.1 59.8736 124.7 58.9669 123.9 58.3269C123.1 57.6869 121.74 57.2336 119.82 56.9669C117.9 56.7003 115.153 56.5669 111.58 56.5669H100.54V65.3669H111.58ZM223.551 21.2069L229.791 79.2869H209.071L207.791 37.8469L199.791 79.2869H178.831L170.671 38.1669L169.471 79.2869H148.751L154.991 21.2069H182.191L189.151 59.0469L195.231 21.2069H223.551ZM255.053 64.6469C275.319 64.5403 290.013 64.2469 299.133 63.7669C298.759 65.9536 298.519 68.2203 298.413 70.5669C298.359 72.8603 298.333 75.7669 298.333 79.2869H236.173C236.599 68.9403 236.813 59.2603 236.813 50.2469C236.813 41.2336 236.599 31.5536 236.173 21.2069H298.333V35.6869H255.053V43.3669C257.613 43.4203 261.399 43.4469 266.413 43.4469C274.893 43.4469 283.666 43.2869 292.733 42.9669V56.7269C283.666 56.4069 274.893 56.2469 266.413 56.2469C261.399 56.2469 257.613 56.2736 255.053 56.3269V64.6469ZM372.588 21.2069C372.214 30.2203 372.028 39.9003 372.028 50.2469C372.028 60.5936 372.214 70.2736 372.588 79.2869H353.788V57.5269H324.348V79.2869H305.548C305.974 68.9403 306.188 59.2603 306.188 50.2469C306.188 41.2336 305.974 31.5536 305.548 21.2069H324.348V42.9669H353.788V21.2069H372.588ZM441.881 50.4069C454.041 50.4069 460.121 54.2736 460.121 62.0069C460.121 65.6336 459.294 68.7269 457.641 71.2869C455.987 73.7936 453.027 75.7669 448.761 77.2069C444.494 78.5936 438.574 79.2869 431.001 79.2869H395.001C395.427 68.9403 395.641 59.2603 395.641 50.2469C395.641 41.2336 395.427 31.5536 395.001 21.2069H413.801V21.2869H430.841C437.454 21.2869 442.654 21.8469 446.441 22.9669C450.281 24.0336 452.974 25.6069 454.521 27.6869C456.121 29.7669 456.921 32.4069 456.921 35.6069C456.921 38.8603 455.774 41.7669 453.481 44.3269C451.241 46.8336 447.374 48.8603 441.881 50.4069ZM413.801 35.8469V43.2869H429.161C432.467 43.2869 434.761 42.9936 436.041 42.4069C437.374 41.8203 438.041 40.7536 438.041 39.2069C438.041 37.9803 437.347 37.1269 435.961 36.6469C434.627 36.1136 432.361 35.8469 429.161 35.8469H413.801ZM429.161 64.6469C431.934 64.6469 434.041 64.5403 435.481 64.3269C436.974 64.0603 438.041 63.6336 438.681 63.0469C439.321 62.4069 439.641 61.5536 439.641 60.4869C439.641 59.1003 438.867 58.1136 437.321 57.5269C435.827 56.8869 433.107 56.5669 429.161 56.5669H413.801V64.6469H429.161ZM516.965 79.2869C515.952 76.2469 514.592 72.4336 512.885 67.8469H487.365L483.365 79.2869H463.285L485.685 21.2069H515.125L537.685 79.2869H516.965ZM508.325 55.3669C506.298 49.7669 504.218 44.1669 502.085 38.5669L500.165 33.3669C498.298 38.2203 495.552 45.5536 491.925 55.3669H508.325ZM607.954 79.2869H587.714V36.8869H569.794L569.714 41.5269C569.714 45.5803 569.607 49.1536 569.394 52.2469C569.234 55.2869 568.861 58.4069 568.274 61.6069C567.207 67.4203 564.487 72.0869 560.114 75.6069C555.794 79.1269 549.741 80.8869 541.954 80.8869V65.2869C544.034 64.8603 545.661 63.9269 546.834 62.4869C548.061 60.9936 548.994 58.6203 549.634 55.3669C550.114 52.7536 550.354 46.8069 550.354 37.5269L550.274 21.2069L607.954 21.2869V79.2869ZM669.016 19.5269C679.309 19.5269 686.856 22.1936 691.656 27.5269C696.456 32.8603 698.856 40.2736 698.856 49.7669C698.856 59.4203 696.456 66.8869 691.656 72.1669C686.909 77.4469 679.362 80.0869 669.016 80.0869C660.002 80.0869 653.096 78.0336 648.296 73.9269C643.496 69.7669 640.589 63.9003 639.576 56.3269H633.096V62.6469C633.096 66.9136 633.149 72.4603 633.256 79.2869H614.376L614.456 70.8869C614.562 61.7136 614.616 54.5936 614.616 49.5269C614.616 44.7803 614.562 38.0336 614.456 29.2869L614.376 21.2069H633.256C633.149 25.5803 633.096 32.8069 633.096 42.8869H639.656C640.722 35.4736 643.629 29.7403 648.376 25.6869C653.176 21.5803 660.056 19.5269 669.016 19.5269ZM669.016 65.4469C672.642 65.4469 675.469 64.1136 677.496 61.4469C679.522 58.7803 680.536 54.8869 680.536 49.7669C680.536 44.7536 679.496 40.9136 677.416 38.2469C675.389 35.5269 672.589 34.1669 669.016 34.1669C665.442 34.1669 662.616 35.5269 660.536 38.2469C658.509 40.9136 657.496 44.7536 657.496 49.7669C657.496 54.8336 658.509 58.7269 660.536 61.4469C662.616 64.1136 665.442 65.4469 669.016 65.4469ZM769.971 38.0069C761.597 37.7403 753.464 37.5803 745.571 37.5269V79.2869H725.571V37.5269C717.624 37.5803 709.517 37.7403 701.251 38.0069V21.2069H769.971V38.0069ZM50.0839 138.407C62.2439 138.407 68.3239 142.274 68.3239 150.007C68.3239 153.634 67.4972 156.727 65.8439 159.287C64.1906 161.794 61.2306 163.767 56.9639 165.207C52.6972 166.594 46.7772 167.287 39.2039 167.287H3.20391C3.63057 156.94 3.84391 147.26 3.84391 138.247C3.84391 129.234 3.63057 119.554 3.20391 109.207H22.0039V109.287H39.0439C45.6572 109.287 50.8572 109.847 54.6439 110.967C58.4839 112.034 61.1772 113.607 62.7239 115.687C64.3239 117.767 65.1239 120.407 65.1239 123.607C65.1239 126.86 63.9772 129.767 61.6839 132.327C59.4439 134.834 55.5772 136.86 50.0839 138.407ZM22.0039 123.847V131.287H37.3639C40.6706 131.287 42.9639 130.994 44.2439 130.407C45.5772 129.82 46.2439 128.754 46.2439 127.207C46.2439 125.98 45.5506 125.127 44.1639 124.647C42.8306 124.114 40.5639 123.847 37.3639 123.847H22.0039ZM37.3639 152.647C40.1372 152.647 42.2439 152.54 43.6839 152.327C45.1772 152.06 46.2439 151.634 46.8839 151.047C47.5239 150.407 47.8439 149.554 47.8439 148.487C47.8439 147.1 47.0706 146.114 45.5239 145.527C44.0306 144.887 41.3106 144.567 37.3639 144.567H22.0039V152.647H37.3639ZM159.424 126.007C151.051 125.74 142.917 125.58 135.024 125.527V167.287H115.024V125.527C107.077 125.58 98.9706 125.74 90.7039 126.007V109.207H159.424V126.007ZM226.26 109.207C226.047 109.794 225.78 110.46 225.46 111.207C225.14 111.9 224.82 112.7 224.5 113.607C221.567 120.86 218.847 127.394 216.34 133.207C213.887 138.967 210.953 145.527 207.54 152.887C204.553 159.287 200.18 164.407 194.42 168.247C188.713 172.14 181.513 174.007 172.82 173.847C171.7 169.207 170.793 165.714 170.1 163.367C169.46 160.967 168.58 158.514 167.46 156.007C170.607 156.7 173.513 157.047 176.18 157.047C178.793 157.047 181.14 156.7 183.22 156.007C179.38 146.14 172.527 130.54 162.66 109.207H182.58L195.3 139.127L197.54 133.767C203.087 120.594 206.207 112.407 206.9 109.207H226.26ZM266.79 109.287C277.403 109.287 284.79 111.18 288.95 114.967C293.11 118.7 295.19 123.98 295.19 130.807C295.19 135.5 294.363 139.5 292.71 142.807C291.056 146.06 288.15 148.62 283.99 150.487C279.83 152.3 274.096 153.207 266.79 153.207H250.15V167.287H230.47C230.896 156.94 231.11 147.26 231.11 138.247C231.11 129.234 230.896 119.554 230.47 109.207H250.15V109.287H266.79ZM261.19 137.767C265.616 137.767 268.923 137.607 271.11 137.287C273.35 136.914 274.896 136.274 275.75 135.367C276.656 134.46 277.11 133.127 277.11 131.367C277.11 129.607 276.683 128.3 275.83 127.447C275.03 126.54 273.51 125.927 271.27 125.607C269.083 125.287 265.723 125.127 261.19 125.127H250.15V137.767H261.19ZM369.483 150.967V182.887H352.123V167.287H301.563C301.99 156.94 302.203 147.26 302.203 138.247C302.203 129.234 301.99 119.554 301.563 109.207H320.363V151.127H347.403V109.207H366.203C365.83 118.327 365.643 128.06 365.643 138.407C365.643 144.007 365.67 148.194 365.723 150.967H369.483ZM394.679 109.287L393.319 154.167L412.759 109.287H442.199C441.826 118.3 441.639 127.954 441.639 138.247C441.639 148.594 441.826 158.274 442.199 167.287H421.639L423.079 123.607L403.719 167.287H375.079C375.506 156.94 375.719 147.26 375.719 138.247C375.719 129.287 375.506 119.634 375.079 109.287H394.679ZM468.195 109.287L466.835 154.167L486.275 109.287H515.715C515.341 118.3 515.155 127.954 515.155 138.247C515.155 148.594 515.341 158.274 515.715 167.287H495.155L496.595 123.607L477.235 167.287H448.595C449.021 156.94 449.235 147.26 449.235 138.247C449.235 129.287 449.021 119.634 448.595 109.287H468.195Z" fill="white"/>
<path d="M537.029 138.313C537.029 125.166 537.029 118.592 540.869 114.317C541.228 113.917 541.608 113.537 542.007 113.178C546.283 109.339 552.856 109.339 566.003 109.339H853.983C867.13 109.339 873.703 109.339 877.979 113.178C878.379 113.537 878.759 113.917 879.118 114.317C882.957 118.592 882.957 125.166 882.957 138.313C882.957 151.46 882.957 158.033 879.118 162.309C878.759 162.709 878.379 163.089 877.979 163.448C873.703 167.287 867.13 167.287 853.983 167.287H566.003C552.856 167.287 546.283 167.287 542.007 163.448C541.608 163.089 541.228 162.709 540.869 162.309C537.029 158.033 537.029 151.46 537.029 138.313Z" fill="url(#paint0_linear_2164_99)"/>
<path d="M560.043 133.882H563.763V139.852C563.743 141.322 563.238 142.537 562.248 143.497C561.268 144.457 559.613 144.937 557.283 144.937C554.923 144.937 553.308 144.482 552.438 143.572C551.568 142.652 551.143 141.447 551.163 139.957V133.882H554.883V139.717C554.883 140.157 554.913 140.517 554.973 140.797C555.043 141.067 555.253 141.322 555.603 141.562C555.963 141.802 556.538 141.922 557.328 141.922C558.188 141.922 558.818 141.802 559.218 141.562C559.618 141.312 559.853 141.037 559.923 140.737C560.003 140.437 560.043 140.052 560.043 139.582V133.882ZM564.962 143.497C565.302 142.987 565.582 142.512 565.802 142.072C566.032 141.632 566.252 141.122 566.462 140.542C567.172 140.952 567.997 141.272 568.937 141.502C569.877 141.732 570.752 141.847 571.562 141.847C572.392 141.847 572.977 141.777 573.317 141.637C573.657 141.487 573.827 141.327 573.827 141.157C573.827 140.547 572.897 140.242 571.037 140.242C568.997 140.242 567.517 140.032 566.597 139.612C565.677 139.182 565.217 138.492 565.217 137.542C565.217 136.192 565.777 135.197 566.897 134.557C568.017 133.917 569.472 133.597 571.262 133.597C572.302 133.597 573.367 133.732 574.457 134.002C575.557 134.262 576.547 134.622 577.427 135.082C577.137 135.742 576.832 136.547 576.512 137.497C576.452 137.697 576.402 137.847 576.362 137.947C575.852 137.537 575.082 137.197 574.052 136.927C573.022 136.647 572.112 136.507 571.322 136.507C570.372 136.507 569.732 136.572 569.402 136.702C569.072 136.822 568.907 137.002 568.907 137.242C568.907 137.482 569.132 137.677 569.582 137.827C570.042 137.967 570.702 138.037 571.562 138.037C573.682 138.037 575.222 138.282 576.182 138.772C577.142 139.252 577.622 139.992 577.622 140.992C577.622 142.392 577.112 143.402 576.092 144.022C575.072 144.632 573.527 144.937 571.457 144.937C570.347 144.937 569.217 144.817 568.067 144.577C566.917 144.327 565.882 143.967 564.962 143.497ZM583.619 133.732C585.499 133.732 586.984 133.962 588.074 134.422C589.164 134.872 589.924 135.502 590.354 136.312C590.794 137.112 591.014 138.097 591.014 139.267C591.014 140.377 590.764 141.347 590.264 142.177C589.764 143.007 589.014 143.652 588.014 144.112C587.014 144.562 585.784 144.787 584.324 144.787C583.434 144.787 582.529 144.787 581.609 144.787C580.689 144.787 579.759 144.782 578.819 144.772C578.899 142.802 578.939 140.967 578.939 139.267C578.939 137.547 578.899 135.752 578.819 133.882C580.009 133.782 581.609 133.732 583.619 133.732ZM584.744 141.802C585.674 141.802 586.294 141.577 586.604 141.127C586.914 140.677 587.069 140.057 587.069 139.267C587.069 138.507 586.904 137.892 586.574 137.422C586.254 136.952 585.644 136.717 584.744 136.717C583.774 136.717 583.049 136.747 582.569 136.807V141.802H584.744ZM604.346 137.047C602.776 136.997 601.251 136.967 599.771 136.957V144.787H596.021V136.957C594.531 136.967 593.011 136.997 591.461 137.047V133.897H604.346V137.047ZM626.444 133.882H630.164V139.852C630.144 141.322 629.639 142.537 628.649 143.497C627.669 144.457 626.014 144.937 623.684 144.937C621.324 144.937 619.709 144.482 618.839 143.572C617.969 142.652 617.544 141.447 617.564 139.957V133.882H621.284V139.717C621.284 140.157 621.314 140.517 621.374 140.797C621.444 141.067 621.654 141.322 622.004 141.562C622.364 141.802 622.939 141.922 623.729 141.922C624.589 141.922 625.219 141.802 625.619 141.562C626.019 141.312 626.254 141.037 626.324 140.737C626.404 140.437 626.444 140.052 626.444 139.582V133.882ZM631.363 143.497C631.703 142.987 631.983 142.512 632.203 142.072C632.433 141.632 632.653 141.122 632.863 140.542C633.573 140.952 634.398 141.272 635.338 141.502C636.278 141.732 637.153 141.847 637.963 141.847C638.793 141.847 639.378 141.777 639.718 141.637C640.058 141.487 640.228 141.327 640.228 141.157C640.228 140.547 639.298 140.242 637.438 140.242C635.398 140.242 633.918 140.032 632.998 139.612C632.078 139.182 631.618 138.492 631.618 137.542C631.618 136.192 632.178 135.197 633.298 134.557C634.418 133.917 635.873 133.597 637.663 133.597C638.703 133.597 639.768 133.732 640.858 134.002C641.958 134.262 642.948 134.622 643.828 135.082C643.538 135.742 643.233 136.547 642.913 137.497C642.853 137.697 642.803 137.847 642.763 137.947C642.253 137.537 641.483 137.197 640.453 136.927C639.423 136.647 638.513 136.507 637.723 136.507C636.773 136.507 636.133 136.572 635.803 136.702C635.473 136.822 635.308 137.002 635.308 137.242C635.308 137.482 635.533 137.677 635.983 137.827C636.443 137.967 637.103 138.037 637.963 138.037C640.083 138.037 641.623 138.282 642.583 138.772C643.543 139.252 644.023 139.992 644.023 140.992C644.023 142.392 643.513 143.402 642.493 144.022C641.473 144.632 639.928 144.937 637.858 144.937C636.748 144.937 635.618 144.817 634.468 144.577C633.318 144.327 632.283 143.967 631.363 143.497ZM650.02 133.732C651.9 133.732 653.385 133.962 654.475 134.422C655.565 134.872 656.325 135.502 656.755 136.312C657.195 137.112 657.415 138.097 657.415 139.267C657.415 140.377 657.165 141.347 656.665 142.177C656.165 143.007 655.415 143.652 654.415 144.112C653.415 144.562 652.185 144.787 650.725 144.787C649.835 144.787 648.93 144.787 648.01 144.787C647.09 144.787 646.16 144.782 645.22 144.772C645.3 142.802 645.34 140.967 645.34 139.267C645.34 137.547 645.3 135.752 645.22 133.882C646.41 133.782 648.01 133.732 650.02 133.732ZM651.145 141.802C652.075 141.802 652.695 141.577 653.005 141.127C653.315 140.677 653.47 140.057 653.47 139.267C653.47 138.507 653.305 137.892 652.975 137.422C652.655 136.952 652.045 136.717 651.145 136.717C650.175 136.717 649.45 136.747 648.97 136.807V141.802H651.145ZM674.161 142.042C677.961 142.022 680.716 141.967 682.426 141.877C682.356 142.287 682.311 142.712 682.291 143.152C682.281 143.582 682.276 144.127 682.276 144.787H670.621C670.701 142.847 670.741 141.032 670.741 139.342C670.741 137.652 670.701 135.837 670.621 133.897H682.276V136.612H674.161V138.052C674.641 138.062 675.351 138.067 676.291 138.067C677.881 138.067 679.526 138.037 681.226 137.977V140.557C679.526 140.497 677.881 140.467 676.291 140.467C675.351 140.467 674.641 140.472 674.161 140.482V142.042ZM692.509 133.882H696.229V139.852C696.209 141.322 695.704 142.537 694.714 143.497C693.734 144.457 692.079 144.937 689.749 144.937C687.389 144.937 685.774 144.482 684.904 143.572C684.034 142.652 683.609 141.447 683.629 139.957V133.882H687.349V139.717C687.349 140.157 687.379 140.517 687.439 140.797C687.509 141.067 687.719 141.322 688.069 141.562C688.429 141.802 689.004 141.922 689.794 141.922C690.654 141.922 691.284 141.802 691.684 141.562C692.084 141.312 692.319 141.037 692.389 140.737C692.469 140.437 692.509 140.052 692.509 139.582V133.882ZM709.472 137.527C709.472 138.397 709.257 139.132 708.827 139.732C708.407 140.332 707.682 140.767 706.652 141.037C706.772 141.197 706.857 141.322 706.907 141.412L709.337 144.787H705.257C704.817 143.967 704.122 142.807 703.172 141.307H700.967V144.787H697.427C697.507 142.847 697.547 141.032 697.547 139.342C697.547 137.652 697.507 135.837 697.427 133.897H700.967V133.912H704.042C706.062 133.912 707.472 134.237 708.272 134.887C709.072 135.537 709.472 136.417 709.472 137.527ZM700.967 136.792V138.502H702.992C703.842 138.502 704.482 138.477 704.912 138.427C705.352 138.367 705.657 138.277 705.827 138.157C705.997 138.037 706.082 137.862 706.082 137.632C706.082 137.412 706.002 137.242 705.842 137.122C705.682 137.002 705.382 136.917 704.942 136.867C704.502 136.817 703.852 136.792 702.992 136.792H700.967ZM735.566 137.047C733.996 136.997 732.471 136.967 730.991 136.957V144.787H727.241V136.957C725.751 136.967 724.231 136.997 722.681 137.047V133.897H735.566V137.047ZM748.818 137.527C748.818 138.397 748.603 139.132 748.173 139.732C747.753 140.332 747.028 140.767 745.998 141.037C746.118 141.197 746.203 141.322 746.253 141.412L748.683 144.787H744.603C744.163 143.967 743.468 142.807 742.518 141.307H740.313V144.787H736.773C736.853 142.847 736.893 141.032 736.893 139.342C736.893 137.652 736.853 135.837 736.773 133.897H740.313V133.912H743.388C745.408 133.912 746.818 134.237 747.618 134.887C748.418 135.537 748.818 136.417 748.818 137.527ZM740.313 136.792V138.502H742.338C743.188 138.502 743.828 138.477 744.258 138.427C744.698 138.367 745.003 138.277 745.173 138.157C745.343 138.037 745.428 137.862 745.428 137.632C745.428 137.412 745.348 137.242 745.188 137.122C745.028 137.002 744.728 136.917 744.288 136.867C743.848 136.817 743.198 136.792 742.338 136.792H740.313ZM762.618 133.897L762.333 134.332C761.263 135.992 760.343 137.462 759.573 138.742C758.813 140.012 758.178 141.182 757.668 142.252V144.787H753.753V141.997C753.383 141.247 752.948 140.477 752.448 139.687C751.948 138.887 751.238 137.792 750.318 136.402C749.598 135.342 749.048 134.507 748.668 133.897H752.868C753.168 134.507 753.658 135.412 754.338 136.612C755.018 137.832 755.483 138.692 755.733 139.192C756.083 138.462 756.553 137.567 757.143 136.507C757.833 135.267 758.298 134.397 758.538 133.897H762.618ZM787.475 137.527C787.475 138.397 787.26 139.132 786.83 139.732C786.41 140.332 785.685 140.767 784.655 141.037C784.775 141.197 784.86 141.322 784.91 141.412L787.34 144.787H783.26C782.82 143.967 782.125 142.807 781.175 141.307H778.97V144.787H775.43C775.51 142.847 775.55 141.032 775.55 139.342C775.55 137.652 775.51 135.837 775.43 133.897H778.97V133.912H782.045C784.065 133.912 785.475 134.237 786.275 134.887C787.075 135.537 787.475 136.417 787.475 137.527ZM778.97 136.792V138.502H780.995C781.845 138.502 782.485 138.477 782.915 138.427C783.355 138.367 783.66 138.277 783.83 138.157C784 138.037 784.085 137.862 784.085 137.632C784.085 137.412 784.005 137.242 783.845 137.122C783.685 137.002 783.385 136.917 782.945 136.867C782.505 136.817 781.855 136.792 780.995 136.792H778.97ZM797.553 133.882H801.273V139.852C801.253 141.322 800.748 142.537 799.758 143.497C798.778 144.457 797.123 144.937 794.793 144.937C792.433 144.937 790.818 144.482 789.948 143.572C789.078 142.652 788.653 141.447 788.673 139.957V133.882H792.393V139.717C792.393 140.157 792.423 140.517 792.483 140.797C792.553 141.067 792.763 141.322 793.113 141.562C793.473 141.802 794.048 141.922 794.838 141.922C795.698 141.922 796.328 141.802 796.728 141.562C797.128 141.312 797.363 141.037 797.433 140.737C797.513 140.437 797.553 140.052 797.553 139.582V133.882ZM811.261 139.372C813.541 139.372 814.681 140.097 814.681 141.547C814.681 142.227 814.526 142.807 814.216 143.287C813.906 143.757 813.351 144.127 812.551 144.397C811.751 144.657 810.641 144.787 809.221 144.787H802.471C802.551 142.847 802.591 141.032 802.591 139.342C802.591 137.652 802.551 135.837 802.471 133.897H805.996V133.912H809.191C810.431 133.912 811.406 134.017 812.116 134.227C812.836 134.427 813.341 134.722 813.631 135.112C813.931 135.502 814.081 135.997 814.081 136.597C814.081 137.207 813.866 137.752 813.436 138.232C813.016 138.702 812.291 139.082 811.261 139.372ZM805.996 136.642V138.037H808.876C809.496 138.037 809.926 137.982 810.166 137.872C810.416 137.762 810.541 137.562 810.541 137.272C810.541 137.042 810.411 136.882 810.151 136.792C809.901 136.692 809.476 136.642 808.876 136.642H805.996ZM808.876 142.042C809.396 142.042 809.791 142.022 810.061 141.982C810.341 141.932 810.541 141.852 810.661 141.742C810.781 141.622 810.841 141.462 810.841 141.262C810.841 141.002 810.696 140.817 810.406 140.707C810.126 140.587 809.616 140.527 808.876 140.527H805.996V142.042H808.876ZM835.716 144.787C835.246 143.937 834.466 142.637 833.376 140.887L831.621 142.627V144.787H827.886C827.966 142.847 828.006 141.032 828.006 139.342C828.006 137.652 827.966 135.837 827.886 133.897H831.621V138.292C833.461 136.472 834.771 135.007 835.551 133.897H840.411L835.686 138.577C836.386 139.557 837.171 140.622 838.041 141.772C838.921 142.922 839.716 143.927 840.426 144.787H835.716ZM846.607 141.832C847.177 141.822 848.647 141.782 851.017 141.712C851.317 141.702 851.667 141.687 852.067 141.667C852.467 141.647 852.912 141.632 853.402 141.622C853.332 142.092 853.287 142.562 853.267 143.032C853.257 143.502 853.252 144.087 853.252 144.787H841.747V141.442C842.297 141.132 842.897 140.752 843.547 140.302C844.197 139.842 845.037 139.242 846.067 138.502C847.027 137.802 847.722 137.302 848.152 137.002C847.362 137.012 845.777 137.067 843.397 137.167C842.577 137.207 842.027 137.232 841.747 137.242C841.747 136.502 841.737 135.882 841.717 135.382C841.707 134.882 841.677 134.387 841.627 133.897H853.252V137.257C852.722 137.607 851.742 138.287 850.312 139.297C848.712 140.437 847.477 141.282 846.607 141.832ZM866.89 137.047C865.32 136.997 863.795 136.967 862.315 136.957V144.787H858.565V136.957C857.075 136.967 855.555 136.997 854.005 137.047V133.897H866.89V137.047Z" fill="white"/>
<circle cx="610.926" cy="138.996" r="2.5" fill="white"/>
<circle cx="663.539" cy="138.996" r="2.5" fill="white"/>
<circle cx="716.703" cy="138.996" r="2.5" fill="white"/>
<circle cx="767.934" cy="138.996" r="2.5" fill="white"/>
<circle cx="821.547" cy="138.996" r="2.5" fill="white"/>
<defs>
<linearGradient id="paint0_linear_2164_99" x1="583.977" y1="81.3302" x2="754.85" y2="272.95" gradientUnits="userSpaceOnUse">
<stop stop-color="#FD8E0D"/>
<stop offset="0.494792" stop-color="#FFB053"/>
<stop offset="1" stop-color="#F3890E"/>
</linearGradient>
</defs>
</svg>
