<svg width="197" height="91" viewBox="0 0 197 91" fill="none" xmlns="http://www.w3.org/2000/svg">
<g clip-path="url(#clip0_750_7802)">
<path d="M1.75391 37.333C1.75391 30.2337 1.75603 25.0098 2.29416 21.0072C2.82843 17.0334 3.87448 14.4134 5.85441 12.4335C7.83434 10.4536 10.4543 9.40753 14.4281 8.87327C18.4307 8.33513 23.6546 8.33301 30.7539 8.33301H160.754C167.853 8.33301 173.077 8.33513 177.08 8.87327C181.054 9.40754 183.673 10.4536 185.653 12.4335C187.633 14.4134 188.679 17.0334 189.214 21.0072C189.752 25.0098 189.754 30.2337 189.754 37.333V60.6668C189.754 67.7661 189.752 72.99 189.214 76.9926C188.679 80.9664 187.633 83.5863 185.653 85.5662C183.673 87.5462 181.054 88.5922 177.08 89.1265C173.077 89.6646 167.853 89.6668 160.754 89.6668H30.7539C23.6546 89.6668 18.4307 89.6646 14.4281 89.1265C10.4543 88.5922 7.83434 87.5462 5.85441 85.5662C3.87448 83.5863 2.82843 80.9664 2.29416 76.9926C1.75603 72.99 1.75391 67.7661 1.75391 60.6668V37.333Z" fill="white" fill-opacity="0.3" stroke="url(#paint0_linear_750_7802)" stroke-width="2"/>
<path d="M39.3139 39.6041H35.9479L34.8479 36.2601H27.6099L26.5319 39.6041H23.3419L28.5339 24.2041H34.1219L39.3139 39.6041ZM31.2399 25.1281L28.5119 33.4661H33.9459L31.2399 25.1281ZM43.5682 39.6041H40.5982V28.2521H43.5682V32.6301H48.7162V28.2521H51.6862V39.6041H48.7162V35.2261H43.5682V39.6041ZM60.0523 39.6041H57.0823V30.8701H53.3643V28.2521H63.7483V30.8701H60.0523V39.6041ZM69.7994 28.0321C71.2367 28.0321 72.4027 28.4061 73.2974 29.1541C74.192 29.9021 74.6394 30.9948 74.6394 32.4321V39.6041H71.6694V36.7881C71.0387 38.8121 69.7334 39.8241 67.7534 39.8241C66.8294 39.8241 66.0374 39.5235 65.3774 38.9221C64.7174 38.3208 64.3874 37.5361 64.3874 36.5681C64.3874 34.4415 65.8467 33.2241 68.7654 32.9161L70.6134 32.7401C71.3174 32.6961 71.6694 32.3955 71.6694 31.8381C71.6694 31.4275 71.4934 31.0975 71.1414 30.8481C70.804 30.5988 70.364 30.4741 69.8214 30.4741C69.2347 30.4741 68.7507 30.6281 68.3694 30.9361C68.0027 31.2295 67.768 31.6475 67.6654 32.1901L64.7174 31.5301C64.8787 30.5181 65.414 29.6821 66.3234 29.0221C67.2327 28.3621 68.3914 28.0321 69.7994 28.0321ZM68.8094 37.4701C69.5867 37.4701 70.254 37.2061 70.8114 36.6781C71.3834 36.1501 71.6694 35.5415 71.6694 34.8521V34.5661C71.4934 34.7275 71.156 34.8375 70.6574 34.8961L68.7434 35.1161C68.318 35.1748 67.9807 35.3141 67.7314 35.5341C67.482 35.7395 67.3574 36.0035 67.3574 36.3261C67.3574 36.6635 67.4894 36.9421 67.7534 37.1621C68.0174 37.3675 68.3694 37.4701 68.8094 37.4701ZM76.3568 39.8021H76.1588V37.1841H76.5328C77.3394 37.1841 77.8674 36.9935 78.1168 36.6121C78.3808 36.2161 78.5128 35.3215 78.5128 33.9281V28.2521H88.3468V39.6041H85.3768V30.8701H81.3068V33.9281C81.3068 35.9815 80.9401 37.4775 80.2068 38.4161C79.4734 39.3401 78.1901 39.8021 76.3568 39.8021ZM96.6172 39.6041H90.7212V28.2521H93.6912V31.4641H96.6172C97.9665 31.4641 99.0445 31.8455 99.8512 32.6081C100.673 33.3561 101.083 34.3315 101.083 35.5341C101.083 36.7368 100.673 37.7195 99.8512 38.4821C99.0445 39.2301 97.9665 39.6041 96.6172 39.6041ZM93.6912 34.0821V36.9861H96.2652C96.7932 36.9861 97.2112 36.8541 97.5192 36.5901C97.8419 36.3115 98.0032 35.9595 98.0032 35.5341C98.0032 35.1088 97.8419 34.7641 97.5192 34.5001C97.2112 34.2215 96.7932 34.0821 96.2652 34.0821H93.6912ZM106.652 28.2521H112.68V39.6041H109.71V35.9741H108.236L105.508 39.6041H102.076L105.002 35.7101C104.21 35.4461 103.579 34.9988 103.11 34.3681C102.655 33.7228 102.428 32.9748 102.428 32.1241C102.428 30.9801 102.817 30.0488 103.594 29.3301C104.386 28.6115 105.405 28.2521 106.652 28.2521ZM106.828 33.3561H109.71V30.8701H106.828C106.417 30.8701 106.095 30.9948 105.86 31.2441C105.625 31.4788 105.508 31.7721 105.508 32.1241C105.508 32.4908 105.625 32.7915 105.86 33.0261C106.095 33.2461 106.417 33.3561 106.828 33.3561Z" fill="white"/>
<path d="M2.75586 50.123H188.754" stroke="white" stroke-opacity="0.46"/>
<path d="M28.126 65.5692L32.34 71.3512H30.464L27.062 66.7452L25.634 68.3132V71.3512H24.08V61.5512H25.634V66.1852L29.848 61.5512H31.794L28.126 65.5692ZM33.4369 70.4272C32.7089 69.7178 32.3449 68.8358 32.3449 67.7812C32.3449 66.7265 32.7089 65.8445 33.4369 65.1352C34.1649 64.4165 35.0656 64.0572 36.1389 64.0572C37.2123 64.0572 38.1129 64.4165 38.8409 65.1352C39.5689 65.8445 39.9329 66.7265 39.9329 67.7812C39.9329 68.8358 39.5689 69.7178 38.8409 70.4272C38.1129 71.1365 37.2123 71.4912 36.1389 71.4912C35.0656 71.4912 34.1649 71.1365 33.4369 70.4272ZM34.5149 66.1012C34.0763 66.5492 33.8569 67.1092 33.8569 67.7812C33.8569 68.4532 34.0763 69.0132 34.5149 69.4612C34.9536 69.9092 35.4949 70.1332 36.1389 70.1332C36.7923 70.1332 37.3336 69.9092 37.7629 69.4612C38.2016 69.0132 38.4209 68.4532 38.4209 67.7812C38.4209 67.0998 38.2016 66.5352 37.7629 66.0872C37.3336 65.6392 36.7923 65.4152 36.1389 65.4152C35.4949 65.4152 34.9536 65.6438 34.5149 66.1012ZM45.3386 64.0572C46.1506 64.0572 46.8132 64.3418 47.3266 64.9112C47.8399 65.4805 48.0966 66.2038 48.0966 67.0812V71.3512H46.6266V67.3052C46.6266 66.7545 46.4492 66.3018 46.0946 65.9472C45.7399 65.5832 45.3012 65.4012 44.7786 65.4012C44.1906 65.4012 43.7099 65.5832 43.3366 65.9472C42.9632 66.3018 42.7766 66.7545 42.7766 67.3052V71.3512H41.3066V64.1972H42.7766V66.0452C42.9726 65.4292 43.2946 64.9438 43.7426 64.5892C44.1999 64.2345 44.7319 64.0572 45.3386 64.0572ZM52.3804 70.9452L54.6484 64.1972H56.1464L52.7864 74.1512H51.2884L52.2404 71.3512H51.0784L48.6423 64.1972H50.2384L52.3804 70.9452ZM59.6958 64.0572C60.5545 64.0572 61.2545 64.2812 61.7958 64.7292C62.3371 65.1772 62.6078 65.8212 62.6078 66.6612V71.3512H61.1378V69.4472C60.6991 70.8098 59.8171 71.4912 58.4918 71.4912C57.8758 71.4912 57.3625 71.3092 56.9518 70.9452C56.5411 70.5718 56.3358 70.0865 56.3358 69.4892C56.3358 68.7892 56.5831 68.2665 57.0778 67.9212C57.5725 67.5665 58.2025 67.3472 58.9678 67.2632L60.3538 67.1232C60.8765 67.0765 61.1378 66.8432 61.1378 66.4232C61.1378 66.0778 61.0025 65.8025 60.7318 65.5972C60.4705 65.3918 60.1251 65.2892 59.6958 65.2892C59.2571 65.2892 58.8838 65.4012 58.5758 65.6252C58.2771 65.8492 58.0858 66.1758 58.0018 66.6052L56.5458 66.2552C56.6765 65.5832 57.0265 65.0512 57.5958 64.6592C58.1651 64.2578 58.8651 64.0572 59.6958 64.0572ZM58.9678 70.3012C59.5745 70.3012 60.0878 70.1005 60.5078 69.6992C60.9278 69.2885 61.1378 68.8125 61.1378 68.2712V67.8792C61.0258 68.0658 60.7551 68.1825 60.3258 68.2292L58.9678 68.3972C58.6131 68.4438 58.3285 68.5512 58.1138 68.7192C57.9085 68.8778 57.8058 69.0972 57.8058 69.3772C57.8058 69.6572 57.9085 69.8812 58.1138 70.0492C58.3285 70.2172 58.6131 70.3012 58.9678 70.3012ZM67.1333 64.0572C67.992 64.0572 68.692 64.2812 69.2333 64.7292C69.7746 65.1772 70.0452 65.8212 70.0452 66.6612V71.3512H68.5753V69.4472C68.1366 70.8098 67.2546 71.4912 65.9293 71.4912C65.3133 71.4912 64.8 71.3092 64.3893 70.9452C63.9786 70.5718 63.7733 70.0865 63.7733 69.4892C63.7733 68.7892 64.0206 68.2665 64.5153 67.9212C65.01 67.5665 65.64 67.3472 66.4053 67.2632L67.7913 67.1232C68.314 67.0765 68.5753 66.8432 68.5753 66.4232C68.5753 66.0778 68.44 65.8025 68.1693 65.5972C67.908 65.3918 67.5626 65.2892 67.1333 65.2892C66.6946 65.2892 66.3213 65.4012 66.0133 65.6252C65.7146 65.8492 65.5233 66.1758 65.4393 66.6052L63.9833 66.2552C64.114 65.5832 64.464 65.0512 65.0333 64.6592C65.6026 64.2578 66.3026 64.0572 67.1333 64.0572ZM66.4053 70.3012C67.012 70.3012 67.5253 70.1005 67.9453 69.6992C68.3653 69.2885 68.5753 68.8125 68.5753 68.2712V67.8792C68.4633 68.0658 68.1926 68.1825 67.7633 68.2292L66.4053 68.3972C66.0506 68.4438 65.766 68.5512 65.5513 68.7192C65.346 68.8778 65.2433 69.0972 65.2433 69.3772C65.2433 69.6572 65.346 69.8812 65.5513 70.0492C65.766 70.2172 66.0506 70.3012 66.4053 70.3012ZM73.1008 71.3512H71.6308V60.9912H73.1008V71.3512ZM75.714 65.4992H74.188V64.1972H75.714V61.8732L77.184 61.4112V64.1972H79.2V65.4992H77.184V68.8032C77.184 69.2418 77.282 69.5592 77.478 69.7552C77.674 69.9512 77.9866 70.0492 78.416 70.0492H79.2V71.3512H78.416C77.492 71.3512 76.8106 71.1365 76.372 70.7072C75.9333 70.2778 75.714 69.6198 75.714 68.7332V65.4992ZM82.0422 71.3512H80.5722V64.1972H82.0422V71.3512ZM84.5154 69.4752C84.9074 69.4752 85.2247 69.6338 85.4674 69.9512C85.7194 70.2592 85.8454 70.6372 85.8454 71.0852C85.8454 71.6825 85.6914 72.2005 85.3834 72.6392C85.0754 73.0872 84.6507 73.4278 84.1094 73.6612L83.5074 72.8632C83.9554 72.6672 84.2727 72.4338 84.4594 72.1632C84.6554 71.8925 84.744 71.6218 84.7254 71.3512C84.4267 71.4352 84.1467 71.3932 83.8854 71.2252C83.6334 71.0572 83.5074 70.8052 83.5074 70.4692C83.5074 70.1985 83.6054 69.9652 83.8014 69.7692C83.9974 69.5732 84.2354 69.4752 84.5154 69.4752ZM101.542 61.5512V71.3512H100.072V61.8872L97.7199 71.3512H94.9899L92.6379 61.8872V71.3512H91.1679V61.5512H94.0379L96.3619 70.9592L98.6999 61.5512H101.542ZM103.279 68.3832V64.1972H104.749V68.3832C104.749 68.9058 104.917 69.3305 105.253 69.6572C105.589 69.9745 106.019 70.1332 106.541 70.1332C107.055 70.1332 107.479 69.9745 107.815 69.6572C108.151 69.3305 108.319 68.9058 108.319 68.3832V64.1972H109.789V68.3832C109.789 69.2978 109.481 70.0445 108.865 70.6232C108.259 71.2018 107.484 71.4912 106.541 71.4912C105.589 71.4912 104.805 71.2018 104.189 70.6232C103.583 70.0445 103.279 69.2978 103.279 68.3832ZM112.859 64.1972V66.0872C113.092 65.2378 113.456 64.6638 113.951 64.3652C114.455 64.0665 115.024 63.9918 115.659 64.1412V65.5412C114.884 65.3265 114.221 65.3965 113.671 65.7512C113.129 66.0965 112.859 66.6145 112.859 67.3052V71.3512H111.389V64.1972H112.859ZM119.291 64.0572C120.15 64.0572 120.85 64.2812 121.391 64.7292C121.933 65.1772 122.203 65.8212 122.203 66.6612V71.3512H120.733V69.4472C120.295 70.8098 119.413 71.4912 118.087 71.4912C117.471 71.4912 116.958 71.3092 116.547 70.9452C116.137 70.5718 115.931 70.0865 115.931 69.4892C115.931 68.7892 116.179 68.2665 116.673 67.9212C117.168 67.5665 117.798 67.3472 118.563 67.2632L119.949 67.1232C120.472 67.0765 120.733 66.8432 120.733 66.4232C120.733 66.0778 120.598 65.8025 120.327 65.5972C120.066 65.3918 119.721 65.2892 119.291 65.2892C118.853 65.2892 118.479 65.4012 118.171 65.6252C117.873 65.8492 117.681 66.1758 117.597 66.6052L116.141 66.2552C116.272 65.5832 116.622 65.0512 117.191 64.6592C117.761 64.2578 118.461 64.0572 119.291 64.0572ZM118.563 70.3012C119.17 70.3012 119.683 70.1005 120.103 69.6992C120.523 69.2885 120.733 68.8125 120.733 68.2712V67.8792C120.621 68.0658 120.351 68.1825 119.921 68.2292L118.563 68.3972C118.209 68.4438 117.924 68.5512 117.709 68.7192C117.504 68.8778 117.401 69.0972 117.401 69.3772C117.401 69.6572 117.504 69.8812 117.709 70.0492C117.924 70.2172 118.209 70.3012 118.563 70.3012ZM124.331 65.4992H122.805V64.1972H124.331V61.8732L125.801 61.4112V64.1972H127.817V65.4992H125.801V68.8032C125.801 69.2418 125.899 69.5592 126.095 69.7552C126.291 69.9512 126.604 70.0492 127.033 70.0492H127.817V71.3512H127.033C126.109 71.3512 125.428 71.1365 124.989 70.7072C124.55 70.2778 124.331 69.6198 124.331 68.7332V65.4992ZM133.501 64.0572C134.425 64.0572 135.195 64.4165 135.811 65.1352C136.427 65.8445 136.735 66.7265 136.735 67.7812C136.735 68.8358 136.427 69.7178 135.811 70.4272C135.195 71.1365 134.425 71.4912 133.501 71.4912C132.829 71.4912 132.241 71.2952 131.737 70.9032C131.243 70.5018 130.883 69.9605 130.659 69.2792V74.1512H129.189V64.1972H130.659V66.2692C130.883 65.5878 131.243 65.0512 131.737 64.6592C132.241 64.2578 132.829 64.0572 133.501 64.0572ZM133.011 70.1332C133.627 70.1332 134.145 69.9092 134.565 69.4612C134.995 69.0038 135.209 68.4438 135.209 67.7812C135.209 67.1092 134.995 66.5492 134.565 66.1012C134.145 65.6438 133.627 65.4152 133.011 65.4152C132.33 65.4152 131.765 65.6392 131.317 66.0872C130.879 66.5352 130.659 67.0998 130.659 67.7812C130.659 68.4532 130.879 69.0132 131.317 69.4612C131.765 69.9092 132.33 70.1332 133.011 70.1332ZM141.043 64.0572C141.902 64.0572 142.602 64.2812 143.143 64.7292C143.685 65.1772 143.955 65.8212 143.955 66.6612V71.3512H142.485V69.4472C142.047 70.8098 141.165 71.4912 139.839 71.4912C139.223 71.4912 138.71 71.3092 138.299 70.9452C137.889 70.5718 137.683 70.0865 137.683 69.4892C137.683 68.7892 137.931 68.2665 138.425 67.9212C138.92 67.5665 139.55 67.3472 140.315 67.2632L141.701 67.1232C142.224 67.0765 142.485 66.8432 142.485 66.4232C142.485 66.0778 142.35 65.8025 142.079 65.5972C141.818 65.3918 141.473 65.2892 141.043 65.2892C140.605 65.2892 140.231 65.4012 139.923 65.6252C139.625 65.8492 139.433 66.1758 139.349 66.6052L137.893 66.2552C138.024 65.5832 138.374 65.0512 138.943 64.6592C139.513 64.2578 140.213 64.0572 141.043 64.0572ZM140.315 70.3012C140.922 70.3012 141.435 70.1005 141.855 69.6992C142.275 69.2885 142.485 68.8125 142.485 68.2712V67.8792C142.373 68.0658 142.103 68.1825 141.673 68.2292L140.315 68.3972C139.961 68.4438 139.676 68.5512 139.461 68.7192C139.256 68.8778 139.153 69.0972 139.153 69.3772C139.153 69.6572 139.256 69.8812 139.461 70.0492C139.676 70.2172 139.961 70.3012 140.315 70.3012ZM151.197 69.3072C151.197 69.8858 150.95 70.3758 150.455 70.7772C149.96 71.1692 149.33 71.4025 148.565 71.4772C148.901 71.6358 149.153 71.8365 149.321 72.0792C149.498 72.3218 149.587 72.5785 149.587 72.8492C149.587 73.2412 149.41 73.5772 149.055 73.8572C148.71 74.1465 148.229 74.2912 147.613 74.2912C147.314 74.2912 147.016 74.2538 146.717 74.1792L146.871 72.9892C147.095 73.0265 147.244 73.0452 147.319 73.0452C147.59 73.0452 147.8 72.9798 147.949 72.8492C148.108 72.7278 148.187 72.5645 148.187 72.3592C148.187 72.0418 148.024 71.7478 147.697 71.4772C146.978 71.4118 146.395 71.2018 145.947 70.8472C145.499 70.4925 145.224 70.0305 145.121 69.4612L146.591 69.1532C146.722 69.9185 147.244 70.3012 148.159 70.3012C148.626 70.3012 148.999 70.2125 149.279 70.0352C149.568 69.8485 149.713 69.6152 149.713 69.3352C149.713 69.0365 149.564 68.8125 149.265 68.6632C148.966 68.5045 148.602 68.3925 148.173 68.3272C147.744 68.2525 147.31 68.1638 146.871 68.0612C146.442 67.9585 146.078 67.7578 145.779 67.4592C145.48 67.1512 145.331 66.7405 145.331 66.2272C145.331 65.6018 145.597 65.0838 146.129 64.6732C146.67 64.2625 147.347 64.0572 148.159 64.0572C148.971 64.0572 149.634 64.2392 150.147 64.6032C150.67 64.9672 150.982 65.4618 151.085 66.0872L149.615 66.3952C149.503 65.6298 149.018 65.2472 148.159 65.2472C147.767 65.2472 147.445 65.3312 147.193 65.4992C146.941 65.6672 146.815 65.8865 146.815 66.1572C146.815 66.3998 146.922 66.5958 147.137 66.7452C147.352 66.8945 147.622 66.9925 147.949 67.0392C148.276 67.0858 148.626 67.1558 148.999 67.2492C149.382 67.3425 149.736 67.4498 150.063 67.5712C150.39 67.6832 150.66 67.8885 150.875 68.1872C151.09 68.4858 151.197 68.8592 151.197 69.3072ZM155.371 64.0572C156.23 64.0572 156.93 64.2812 157.471 64.7292C158.013 65.1772 158.283 65.8212 158.283 66.6612V71.3512H156.813V69.4472C156.375 70.8098 155.493 71.4912 154.167 71.4912C153.551 71.4912 153.038 71.3092 152.627 70.9452C152.217 70.5718 152.011 70.0865 152.011 69.4892C152.011 68.7892 152.259 68.2665 152.753 67.9212C153.248 67.5665 153.878 67.3472 154.643 67.2632L156.029 67.1232C156.552 67.0765 156.813 66.8432 156.813 66.4232C156.813 66.0778 156.678 65.8025 156.407 65.5972C156.146 65.3918 155.801 65.2892 155.371 65.2892C154.933 65.2892 154.559 65.4012 154.251 65.6252C153.953 65.8492 153.761 66.1758 153.677 66.6052L152.221 66.2552C152.352 65.5832 152.702 65.0512 153.271 64.6592C153.841 64.2578 154.541 64.0572 155.371 64.0572ZM154.643 70.3012C155.25 70.3012 155.763 70.1005 156.183 69.6992C156.603 69.2885 156.813 68.8125 156.813 68.2712V67.8792C156.701 68.0658 156.431 68.1825 156.001 68.2292L154.643 68.3972C154.289 68.4438 154.004 68.5512 153.789 68.7192C153.584 68.8778 153.481 69.0972 153.481 69.3772C153.481 69.6572 153.584 69.8812 153.789 70.0492C154.004 70.2172 154.289 70.3012 154.643 70.3012Z" fill="black"/>
<path d="M182.322 26.0284C189.079 26.0284 194.556 20.5508 194.556 13.794C194.556 7.0371 189.079 1.55957 182.322 1.55957C175.565 1.55957 170.088 7.0371 170.088 13.794C170.088 20.5508 175.565 26.0284 182.322 26.0284Z" fill="#2F83FF" stroke="url(#paint1_linear_750_7802)" stroke-width="2"/>
<path d="M180.722 15.0929H177.51V12.3209H180.722V9.08691H183.692V12.3209H186.926V15.0929H183.692V18.3269H180.722V15.0929Z" fill="#EBF3FF"/>
<line x1="24" y1="75.5" x2="158" y2="75.5" stroke="black"/>
</g>
<defs>
<linearGradient id="paint0_linear_750_7802" x1="72.6993" y1="-29.0273" x2="47.8701" y2="133.011" gradientUnits="userSpaceOnUse">
<stop stop-color="#FFF6EC"/>
<stop offset="1" stop-color="white" stop-opacity="0.1"/>
</linearGradient>
<linearGradient id="paint1_linear_750_7802" x1="179.111" y1="-10.9893" x2="162.709" y2="35.9566" gradientUnits="userSpaceOnUse">
<stop stop-color="#FFF6EC"/>
<stop offset="1" stop-color="white" stop-opacity="0.1"/>
</linearGradient>
<clipPath id="clip0_750_7802">
<rect width="196" height="91" fill="white" transform="translate(0.5)"/>
</clipPath>
</defs>
</svg>
