<svg width="194" height="91" viewBox="0 0 194 91" fill="none" xmlns="http://www.w3.org/2000/svg">
<path d="M1.25391 37.3326C1.25391 30.2333 1.25603 25.0094 1.79416 21.0068C2.32843 17.033 3.37448 14.4131 5.35441 12.4331C7.33434 10.4532 9.95426 9.40717 13.9281 8.8729C17.9307 8.33477 23.1546 8.33264 30.2539 8.33264H160.254C167.353 8.33264 172.577 8.33477 176.58 8.8729C180.554 9.40717 183.173 10.4532 185.153 12.4331C187.133 14.4131 188.179 17.033 188.714 21.0068C189.252 25.0094 189.254 30.2333 189.254 37.3326V60.6664C189.254 67.7657 189.252 72.9896 188.714 76.9922C188.179 80.966 187.133 83.5859 185.153 85.5659C183.173 87.5458 180.554 88.5919 176.58 89.1261C172.577 89.6643 167.353 89.6664 160.254 89.6664H30.2539C23.1546 89.6664 17.9307 89.6643 13.9281 89.1261C9.95426 88.5919 7.33434 87.5458 5.35441 85.5659C3.37448 83.5859 2.32843 80.966 1.79416 76.9922C1.25603 72.9896 1.25391 67.7657 1.25391 60.6664V37.3326Z" fill="white" fill-opacity="0.3" stroke="url(#paint0_linear_1066_589)" stroke-width="2"/>
<path d="M24.3339 37.5359C22.7792 36.0105 22.0019 34.1332 22.0019 31.9039C22.0019 29.6745 22.7792 27.7972 24.3339 26.2719C25.8886 24.7465 27.8099 23.9839 30.0979 23.9839C31.7846 23.9839 33.2659 24.4165 34.5419 25.2819C35.8179 26.1472 36.7346 27.2032 37.2919 28.4499L34.3879 29.5719C34.0066 28.7799 33.4346 28.1345 32.6719 27.6359C31.9239 27.1225 31.0659 26.8659 30.0979 26.8659C28.7339 26.8659 27.5826 27.3499 26.6439 28.3179C25.7199 29.2859 25.2579 30.4812 25.2579 31.9039C25.2579 33.3265 25.7199 34.5219 26.6439 35.4899C27.5826 36.4579 28.7339 36.9419 30.0979 36.9419C31.0659 36.9419 31.9239 36.6925 32.6719 36.1939C33.4346 35.6805 34.0066 35.0279 34.3879 34.2359L37.2919 35.3579C36.7346 36.6045 35.8179 37.6605 34.5419 38.5259C33.2659 39.3912 31.7846 39.8239 30.0979 39.8239C27.8099 39.8239 25.8886 39.0612 24.3339 37.5359ZM44.4742 39.6039H41.5042V30.8699H37.7862V28.2519H48.1702V30.8699H44.4742V39.6039ZM54.2213 28.0319C55.6586 28.0319 56.8246 28.4059 57.7193 29.1539C58.6139 29.9019 59.0613 30.9945 59.0613 32.4319V39.6039H56.0913V36.7879C55.4606 38.8119 54.1553 39.8239 52.1753 39.8239C51.2513 39.8239 50.4593 39.5232 49.7993 38.9219C49.1393 38.3205 48.8093 37.5359 48.8093 36.5679C48.8093 34.4412 50.2686 33.2239 53.1873 32.9159L55.0353 32.7399C55.7393 32.6959 56.0913 32.3952 56.0913 31.8379C56.0913 31.4272 55.9153 31.0972 55.5633 30.8479C55.2259 30.5985 54.7859 30.4739 54.2433 30.4739C53.6566 30.4739 53.1726 30.6279 52.7913 30.9359C52.4246 31.2292 52.1899 31.6472 52.0873 32.1899L49.1393 31.5299C49.3006 30.5179 49.8359 29.6819 50.7453 29.0219C51.6546 28.3619 52.8133 28.0319 54.2213 28.0319ZM53.2313 37.4699C54.0086 37.4699 54.6759 37.2059 55.2333 36.6779C55.8053 36.1499 56.0913 35.5412 56.0913 34.8519V34.5659C55.9153 34.7272 55.5779 34.8372 55.0793 34.8959L53.1653 35.1159C52.7399 35.1745 52.4026 35.3139 52.1533 35.5339C51.9039 35.7392 51.7793 36.0032 51.7793 36.3259C51.7793 36.6632 51.9113 36.9419 52.1753 37.1619C52.4393 37.3672 52.7913 37.4699 53.2313 37.4699ZM75.2546 28.2519V39.6039H72.6366V28.8679L70.7006 39.6039H65.8826L63.9466 28.8679V39.6039H61.3286V28.2519H66.3666L68.2806 38.8119L70.1946 28.2519H75.2546ZM84.6753 28.4719C86.0539 28.4719 87.2126 29.0072 88.1513 30.0779C89.0899 31.1485 89.5593 32.4465 89.5593 33.9719C89.5593 35.6585 88.9799 37.0592 87.8213 38.1739C86.6773 39.2739 85.2473 39.8239 83.5313 39.8239C81.7566 39.8239 80.2899 39.2372 79.1313 38.0639C77.9873 36.8905 77.4153 35.2699 77.4153 33.2019C77.4153 28.6992 78.6913 25.8392 81.2433 24.6219C82.0793 24.2259 83.2966 23.9325 84.8953 23.7419C86.5086 23.5365 87.7553 23.3239 88.6353 23.1039V25.7879C87.9459 25.9932 86.8899 26.1839 85.4673 26.3599C84.0593 26.5212 83.1059 26.7192 82.6073 26.9539C81.3459 27.5405 80.6566 29.1172 80.5393 31.6839C80.7739 30.8625 81.2653 30.1219 82.0133 29.4619C82.7613 28.8019 83.6486 28.4719 84.6753 28.4719ZM83.5313 37.1179C84.3673 37.1179 85.0639 36.8392 85.6213 36.2819C86.1933 35.7099 86.4793 34.9985 86.4793 34.1479C86.4793 33.3119 86.2006 32.6079 85.6433 32.0359C85.1006 31.4639 84.4333 31.1779 83.6413 31.1779C82.7466 31.1779 82.0133 31.4639 81.4413 32.0359C80.8693 32.5932 80.5833 33.2972 80.5833 34.1479C80.5833 34.9985 80.8619 35.7099 81.4193 36.2819C81.9766 36.8392 82.6806 37.1179 83.5313 37.1179ZM95.7945 38.8119L98.9845 28.2519H101.999L97.2245 44.0039H94.2105L95.5525 39.6039H93.1545L89.6785 28.2519H92.8905L95.7945 38.8119ZM101.449 39.8019H101.251V37.1839H101.625C102.431 37.1839 102.959 36.9932 103.209 36.6119C103.473 36.2159 103.605 35.3212 103.605 33.9279V28.2519H113.439V39.6039H110.469V30.8699H106.399V33.9279C106.399 35.9812 106.032 37.4772 105.299 38.4159C104.565 39.3399 103.282 39.8019 101.449 39.8019Z" fill="white"/>
<path d="M2.25586 50.123L188.254 50.1231" stroke="white" stroke-opacity="0.46"/>
<path d="M31.2919 74.6039H29.6399L28.7999 72.2379H23.8019L22.9619 74.6039H21.3799L24.9639 64.8039H27.7079L31.2919 74.6039ZM26.3079 65.2519L24.3059 70.8519H28.2959L26.3079 65.2519ZM35.8221 70.4319L39.1261 74.6039H37.2641L34.8281 71.5239L33.7081 72.7279V74.6039H32.2381V64.2439H33.7081V70.7959L36.7321 67.4499H38.5801L35.8221 70.4319ZM39.324 72.7139L40.794 72.4059C40.9246 73.1712 41.4473 73.5539 42.362 73.5539C42.8286 73.5539 43.202 73.4652 43.482 73.2879C43.7713 73.1012 43.916 72.8679 43.916 72.5879C43.916 72.2892 43.7666 72.0652 43.468 71.9159C43.1693 71.7572 42.8053 71.6452 42.376 71.5799C41.9466 71.5052 41.5126 71.4165 41.074 71.3139C40.6446 71.2112 40.2806 71.0105 39.982 70.7119C39.6833 70.4039 39.534 69.9932 39.534 69.4799C39.534 68.8545 39.8 68.3365 40.332 67.9259C40.8733 67.5152 41.55 67.3099 42.362 67.3099C43.174 67.3099 43.8366 67.4919 44.35 67.8559C44.8726 68.2199 45.1853 68.7145 45.288 69.3399L43.818 69.6479C43.706 68.8825 43.2206 68.4999 42.362 68.4999C41.97 68.4999 41.648 68.5839 41.396 68.7519C41.144 68.9199 41.018 69.1392 41.018 69.4099C41.018 69.6525 41.1253 69.8485 41.34 69.9979C41.5546 70.1472 41.8253 70.2452 42.152 70.2919C42.4786 70.3385 42.8286 70.4085 43.202 70.5019C43.5846 70.5952 43.9393 70.7025 44.266 70.8239C44.5926 70.9359 44.8633 71.1412 45.078 71.4399C45.2926 71.7385 45.4 72.1119 45.4 72.5599C45.4 73.1852 45.106 73.7079 44.518 74.1279C43.9393 74.5385 43.2206 74.7439 42.362 74.7439C41.5126 74.7439 40.822 74.5619 40.29 74.1979C39.758 73.8339 39.436 73.3392 39.324 72.7139ZM49.5746 67.3099C50.4333 67.3099 51.1333 67.5339 51.6746 67.9819C52.2159 68.4299 52.4866 69.0739 52.4866 69.9139V74.6039H51.0166V72.6999C50.5779 74.0625 49.6959 74.7439 48.3706 74.7439C47.7546 74.7439 47.2413 74.5619 46.8306 74.1979C46.4199 73.8245 46.2146 73.3392 46.2146 72.7419C46.2146 72.0419 46.4619 71.5192 46.9566 71.1739C47.4513 70.8192 48.0813 70.5999 48.8466 70.5159L50.2326 70.3759C50.7553 70.3292 51.0166 70.0959 51.0166 69.6759C51.0166 69.3305 50.8813 69.0552 50.6106 68.8499C50.3493 68.6445 50.0039 68.5419 49.5746 68.5419C49.1359 68.5419 48.7626 68.6539 48.4546 68.8779C48.1559 69.1019 47.9646 69.4285 47.8806 69.8579L46.4246 69.5079C46.5553 68.8359 46.9053 68.3039 47.4746 67.9119C48.0439 67.5105 48.7439 67.3099 49.5746 67.3099ZM48.8466 73.5539C49.4533 73.5539 49.9666 73.3532 50.3866 72.9519C50.8066 72.5412 51.0166 72.0652 51.0166 71.5239V71.1319C50.9046 71.3185 50.6339 71.4352 50.2046 71.4819L48.8466 71.6499C48.4919 71.6965 48.2073 71.8039 47.9926 71.9719C47.7873 72.1305 47.6846 72.3499 47.6846 72.6299C47.6846 72.9099 47.7873 73.1339 47.9926 73.3019C48.2073 73.4699 48.4919 73.5539 48.8466 73.5539ZM55.5421 67.4499V69.3399C55.7754 68.4905 56.1394 67.9165 56.6341 67.6179C57.1381 67.3192 57.7074 67.2445 58.3421 67.3939V68.7939C57.5674 68.5792 56.9048 68.6492 56.3541 69.0039C55.8128 69.3492 55.5421 69.8672 55.5421 70.5579V74.6039H54.0721V67.4499H55.5421ZM61.975 67.3099C62.8337 67.3099 63.5337 67.5339 64.075 67.9819C64.6163 68.4299 64.887 69.0739 64.887 69.9139V74.6039H63.417V72.6999C62.9783 74.0625 62.0963 74.7439 60.771 74.7439C60.155 74.7439 59.6417 74.5619 59.231 74.1979C58.8203 73.8245 58.615 73.3392 58.615 72.7419C58.615 72.0419 58.8623 71.5192 59.357 71.1739C59.8517 70.8192 60.4817 70.5999 61.247 70.5159L62.633 70.3759C63.1557 70.3292 63.417 70.0959 63.417 69.6759C63.417 69.3305 63.2817 69.0552 63.011 68.8499C62.7497 68.6445 62.4043 68.5419 61.975 68.5419C61.5363 68.5419 61.163 68.6539 60.855 68.8779C60.5563 69.1019 60.365 69.4285 60.281 69.8579L58.825 69.5079C58.9557 68.8359 59.3057 68.3039 59.875 67.9119C60.4443 67.5105 61.1443 67.3099 61.975 67.3099ZM61.247 73.5539C61.8537 73.5539 62.367 73.3532 62.787 72.9519C63.207 72.5412 63.417 72.0652 63.417 71.5239V71.1319C63.305 71.3185 63.0343 71.4352 62.605 71.4819L61.247 71.6499C60.8923 71.6965 60.6077 71.8039 60.393 71.9719C60.1877 72.1305 60.085 72.3499 60.085 72.6299C60.085 72.9099 60.1877 73.1339 60.393 73.3019C60.6077 73.4699 60.8923 73.5539 61.247 73.5539ZM69.1654 74.1979L71.4334 67.4499H72.9314L69.5714 77.4039H68.0734L69.0254 74.6039H67.8634L65.4274 67.4499H67.0234L69.1654 74.1979Z" fill="black"/>
<circle cx="180.039" cy="13.7941" r="12.2344" fill="#2F83FF" stroke="url(#paint1_linear_1066_589)" stroke-width="2"/>
<path d="M178.439 15.0926H175.227V12.3206H178.439V9.08665H181.409V12.3206H184.643V15.0926H181.409V18.3266H178.439V15.0926Z" fill="#EBF3FF"/>
<defs>
<linearGradient id="paint0_linear_1066_589" x1="72.1993" y1="-29.0277" x2="47.3701" y2="133.011" gradientUnits="userSpaceOnUse">
<stop stop-color="#FFF6EC"/>
<stop offset="1" stop-color="white" stop-opacity="0.1"/>
</linearGradient>
<linearGradient id="paint1_linear_1066_589" x1="176.827" y1="-10.9892" x2="160.426" y2="35.9567" gradientUnits="userSpaceOnUse">
<stop stop-color="#FFF6EC"/>
<stop offset="1" stop-color="white" stop-opacity="0.1"/>
</linearGradient>
</defs>
</svg>
