<svg width="56" height="55" viewBox="0 0 56 55" fill="none" xmlns="http://www.w3.org/2000/svg"><path d="M28.225 1.333c5.777 0 10.028.001 13.337.368 3.083.341 5.242.99 6.98 2.179l.343.245c.935.7 1.779 1.514 2.512 2.423l.307.396c1.345 1.797 2.06 4.034 2.424 7.323.366 3.31.368 7.56.368 13.337s-.002 10.028-.368 13.337c-.342 3.084-.992 5.242-2.18 6.98l-.244.343c-.7.936-1.515 1.78-2.424 2.512l-.395.308c-1.797 1.344-4.034 2.06-7.323 2.423-3.31.367-7.56.369-13.337.369s-10.028-.002-13.337-.369c-3.084-.341-5.243-.991-6.982-2.18l-.342-.243c-.935-.7-1.78-1.515-2.512-2.424l-.307-.396c-1.345-1.797-2.06-4.034-2.424-7.323-.366-3.309-.368-7.56-.368-13.337s.002-10.028.368-13.337c.342-3.084.99-5.243 2.179-6.981l.245-.342A14 14 0 0 1 7.17 4.431l.395-.306c1.797-1.345 4.034-2.06 7.324-2.424 3.309-.367 7.56-.368 13.337-.368Z" fill="#fff" fill-opacity=".3" stroke="url(#a)" stroke-width="2"/><circle cx="20.952" cy="22.877" r="9.09" fill="url(#b)"/><g clip-path="url(#c)"><path fill-rule="evenodd" clip-rule="evenodd" d="M33.413 37.543c2.8-3.57 6.326-8.756 6.326-12.231 0-5.763-4.342-10.435-9.697-10.435s-9.696 4.672-9.696 10.434c0 3.476 3.526 8.662 6.326 12.232 1.46 1.863 2.19 2.794 3.37 2.794s1.91-.931 3.37-2.794" fill="url(#d)"/><g filter="url(#e)"><path d="M34.385 23.932a.909.909 0 0 0-1.415-1.14l-2.45 3.04c-.504.624-.821 1.015-1.085 1.262a1.2 1.2 0 0 1-.25.19c-.033.017-.045.017-.052.017h-.002c-.006 0-.018 0-.052-.017a1.2 1.2 0 0 1-.25-.19c-.263-.247-.58-.638-1.084-1.262l-.632-.784a.909.909 0 1 0-1.416 1.14l.672.834c.451.56.85 1.055 1.22 1.4.397.372.892.697 1.543.697.652 0 1.146-.325 1.544-.697.37-.345.768-.84 1.22-1.4z" fill="#fff"/></g></g><defs><linearGradient id="a" x1="21.606" y1="-23.465" x2="-12.191" y2="73.273" gradientUnits="userSpaceOnUse"><stop stop-color="#FFF6EC"/><stop offset="1" stop-color="#fff" stop-opacity=".1"/></linearGradient><linearGradient id="b" x1="11.861" y1="31.967" x2="30.43" y2="14.191" gradientUnits="userSpaceOnUse"><stop stop-color="#fff"/><stop offset="1" stop-color="#FFC37D"/></linearGradient><linearGradient id="d" x1="20.346" y1="40.337" x2="45.127" y2="22.266" gradientUnits="userSpaceOnUse"><stop stop-color="#FF971D"/><stop offset="1" stop-color="#FFC37D"/></linearGradient><clipPath id="c"><path fill="#fff" d="M15.498 13.06h29.089v29.089H15.498z"/></clipPath><filter id="e" x="22.24" y="19.197" width="22.113" height="19.69" filterUnits="userSpaceOnUse" color-interpolation-filters="sRGB"><feFlood flood-opacity="0" result="BackgroundImageFix"/><feColorMatrix in="SourceAlpha" values="0 0 0 0 0 0 0 0 0 0 0 0 0 0 0 0 0 0 127 0" result="hardAlpha"/><feOffset dx="3.256" dy="3.256"/><feGaussianBlur stdDeviation="3.256"/><feColorMatrix values="0 0 0 0 1 0 0 0 0 1 0 0 0 0 1 0 0 0 1 0"/><feBlend in2="BackgroundImageFix" result="effect1_dropShadow_1011_379"/><feBlend in="SourceGraphic" in2="effect1_dropShadow_1011_379" result="shape"/></filter></defs></svg>