<svg width="198" height="91" viewBox="0 0 198 91" fill="none" xmlns="http://www.w3.org/2000/svg">
<g clip-path="url(#clip0_750_7788)">
<path d="M1.75391 37.333C1.75391 30.2337 1.75603 25.0098 2.29416 21.0072C2.82843 17.0334 3.87448 14.4135 5.85441 12.4335C7.83434 10.4536 10.4543 9.40754 14.4281 8.87327C18.4307 8.33514 23.6546 8.33301 30.7539 8.33301H160.754C167.853 8.33301 173.077 8.33514 177.08 8.87327C181.054 9.40754 183.673 10.4536 185.653 12.4335C187.633 14.4135 188.679 17.0334 189.214 21.0072C189.752 25.0098 189.754 30.2337 189.754 37.333V60.6668C189.754 67.7661 189.752 72.99 189.214 76.9926C188.679 80.9664 187.633 83.5863 185.653 85.5663C183.673 87.5462 181.054 88.5923 177.08 89.1265C173.077 89.6647 167.853 89.6668 160.754 89.6668H30.7539C23.6546 89.6668 18.4307 89.6647 14.4281 89.1265C10.4543 88.5923 7.83434 87.5462 5.85441 85.5663C3.87448 83.5863 2.82843 80.9664 2.29416 76.9926C1.75603 72.99 1.75391 67.7661 1.75391 60.6668V37.333Z" fill="white" fill-opacity="0.3" stroke="url(#paint0_linear_750_7788)" stroke-width="2"/>
<path d="M40.3139 39.6041H36.9479L35.8479 36.2601H28.6099L27.5319 39.6041H24.3419L29.5339 24.2041H35.1219L40.3139 39.6041ZM32.2399 25.1281L29.5119 33.4661H34.9459L32.2399 25.1281ZM41.0482 39.8021H40.8502V37.1841H41.2242C42.0308 37.1841 42.5588 36.9934 42.8082 36.6121C43.0722 36.2161 43.2042 35.3214 43.2042 33.9281V28.2521H53.0382V39.6041H50.0682V30.8701H45.9982V33.9281C45.9982 35.9814 45.6315 37.4774 44.8982 38.4161C44.1648 39.3401 42.8815 39.8021 41.0482 39.8021ZM60.1646 28.0321C61.6019 28.0321 62.7679 28.4061 63.6626 29.1541C64.5573 29.9021 65.0046 30.9947 65.0046 32.4321V39.6041H62.0346V36.7881C61.4039 38.8121 60.0986 39.8241 58.1186 39.8241C57.1946 39.8241 56.4026 39.5234 55.7426 38.9221C55.0826 38.3207 54.7526 37.5361 54.7526 36.5681C54.7526 34.4414 56.2119 33.2241 59.1306 32.9161L60.9786 32.7401C61.6826 32.6961 62.0346 32.3954 62.0346 31.8381C62.0346 31.4274 61.8586 31.0974 61.5066 30.8481C61.1693 30.5987 60.7293 30.4741 60.1866 30.4741C59.5999 30.4741 59.1159 30.6281 58.7346 30.9361C58.3679 31.2294 58.1333 31.6474 58.0306 32.1901L55.0826 31.5301C55.2439 30.5181 55.7793 29.6821 56.6886 29.0221C57.5979 28.3621 58.7566 28.0321 60.1646 28.0321ZM59.1746 37.4701C59.9519 37.4701 60.6193 37.2061 61.1766 36.6781C61.7486 36.1501 62.0346 35.5414 62.0346 34.8521V34.5661C61.8586 34.7274 61.5213 34.8374 61.0226 34.8961L59.1086 35.1161C58.6833 35.1747 58.3459 35.3141 58.0966 35.5341C57.8473 35.7394 57.7226 36.0034 57.7226 36.3261C57.7226 36.6634 57.8546 36.9421 58.1186 37.1621C58.3826 37.3674 58.7346 37.4701 59.1746 37.4701ZM70.242 39.6041H67.272V28.2521H70.242V32.6301H75.39V28.2521H78.36V39.6041H75.39V35.2261H70.242V39.6041ZM86.6602 39.6041H80.7642V28.2521H83.7342V31.4641H86.6602C88.0095 31.4641 89.0875 31.8454 89.8942 32.6081C90.7155 33.3561 91.1262 34.3314 91.1262 35.5341C91.1262 36.7367 90.7155 37.7194 89.8942 38.4821C89.0875 39.2301 88.0095 39.6041 86.6602 39.6041ZM83.7342 34.0821V36.9861H86.3082C86.8362 36.9861 87.2542 36.8541 87.5622 36.5901C87.8848 36.3114 88.0462 35.9594 88.0462 35.5341C88.0462 35.1087 87.8848 34.7641 87.5622 34.5001C87.2542 34.2214 86.8362 34.0821 86.3082 34.0821H83.7342ZM96.6951 28.2521H102.723V39.6041H99.7531V35.9741H98.2791L95.5511 39.6041H92.1191L95.0451 35.7101C94.2531 35.4461 93.6224 34.9987 93.1531 34.3681C92.6984 33.7227 92.4711 32.9747 92.4711 32.1241C92.4711 30.9801 92.8598 30.0487 93.6371 29.3301C94.4291 28.6114 95.4484 28.2521 96.6951 28.2521ZM96.8711 33.3561H99.7531V30.8701H96.8711C96.4604 30.8701 96.1378 30.9947 95.9031 31.2441C95.6684 31.4787 95.5511 31.7721 95.5511 32.1241C95.5511 32.4907 95.6684 32.7914 95.9031 33.0261C96.1378 33.2461 96.4604 33.3561 96.8711 33.3561Z" fill="white"/>
<path d="M2.58594 50.123L188.584 50.1231" stroke="white" stroke-opacity="0.46"/>
<path d="M26.6 70.0547C25.62 69.0841 25.13 67.8894 25.13 66.4707C25.13 65.0521 25.62 63.8574 26.6 62.8867C27.5893 61.9161 28.8073 61.4307 30.254 61.4307C31.2993 61.4307 32.2233 61.7061 33.026 62.2567C33.8287 62.7981 34.412 63.4701 34.776 64.2727L33.348 64.8327C33.068 64.2447 32.6527 63.7687 32.102 63.4047C31.5607 63.0407 30.9447 62.8587 30.254 62.8587C29.2553 62.8587 28.4153 63.2087 27.734 63.9087C27.062 64.5994 26.726 65.4534 26.726 66.4707C26.726 67.4881 27.062 68.3467 27.734 69.0467C28.4153 69.7374 29.2553 70.0827 30.254 70.0827C30.9447 70.0827 31.5607 69.9007 32.102 69.5367C32.6527 69.1727 33.068 68.6967 33.348 68.1087L34.776 68.6687C34.412 69.4714 33.8287 70.1481 33.026 70.6987C32.2233 71.2401 31.2993 71.5107 30.254 71.5107C28.8073 71.5107 27.5893 71.0254 26.6 70.0547ZM39.3403 64.0767C40.4883 64.0767 41.4216 64.4874 42.1403 65.3087C42.859 66.1301 43.153 67.1241 43.0223 68.2907H37.1003C37.203 68.8694 37.469 69.3407 37.8983 69.7047C38.3276 70.0594 38.8456 70.2367 39.4523 70.2367C39.919 70.2367 40.3343 70.1247 40.6983 69.9007C41.0716 69.6674 41.361 69.3547 41.5663 68.9627L42.7983 69.5087C42.481 70.1154 42.0283 70.6007 41.4403 70.9647C40.8523 71.3287 40.1756 71.5107 39.4103 71.5107C38.337 71.5107 37.4363 71.1561 36.7083 70.4467C35.9803 69.7374 35.6163 68.8554 35.6163 67.8007C35.6163 66.7461 35.971 65.8641 36.6803 65.1547C37.399 64.4361 38.2856 64.0767 39.3403 64.0767ZM39.3403 65.3507C38.799 65.3507 38.3276 65.5187 37.9263 65.8547C37.5343 66.1814 37.273 66.6107 37.1423 67.1427H41.5383C41.417 66.6107 41.1556 66.1814 40.7543 65.8547C40.3623 65.5187 39.891 65.3507 39.3403 65.3507ZM48.4732 64.0767C49.2852 64.0767 49.9479 64.3614 50.4612 64.9307C50.9746 65.5001 51.2312 66.2234 51.2312 67.1007V71.3707H49.7612V67.3247C49.7612 66.7741 49.5839 66.3214 49.2292 65.9667C48.8746 65.6027 48.4359 65.4207 47.9132 65.4207C47.3252 65.4207 46.8446 65.6027 46.4712 65.9667C46.0979 66.3214 45.9112 66.7741 45.9112 67.3247V71.3707H44.4412V64.2167H45.9112V66.0647C46.1072 65.4487 46.4292 64.9634 46.8772 64.6087C47.3346 64.2541 47.8666 64.0767 48.4732 64.0767ZM53.4326 65.5187H51.9066V64.2167H53.4326V61.8927L54.9026 61.4307V64.2167H56.9186V65.5187H54.9026V68.8227C54.9026 69.2614 55.0006 69.5787 55.1966 69.7747C55.3926 69.9707 55.7053 70.0687 56.1346 70.0687H56.9186V71.3707H56.1346C55.2106 71.3707 54.5293 71.1561 54.0906 70.7267C53.652 70.2974 53.4326 69.6394 53.4326 68.7527V65.5187ZM61.4204 64.0767C62.5684 64.0767 63.5017 64.4874 64.2204 65.3087C64.9391 66.1301 65.2331 67.1241 65.1024 68.2907H59.1804C59.2831 68.8694 59.5491 69.3407 59.9784 69.7047C60.4077 70.0594 60.9257 70.2367 61.5324 70.2367C61.9991 70.2367 62.4144 70.1247 62.7784 69.9007C63.1517 69.6674 63.4411 69.3547 63.6464 68.9627L64.8784 69.5087C64.5611 70.1154 64.1084 70.6007 63.5204 70.9647C62.9324 71.3287 62.2557 71.5107 61.4904 71.5107C60.4171 71.5107 59.5164 71.1561 58.7884 70.4467C58.0604 69.7374 57.6964 68.8554 57.6964 67.8007C57.6964 66.7461 58.0511 65.8641 58.7604 65.1547C59.4791 64.4361 60.3657 64.0767 61.4204 64.0767ZM61.4204 65.3507C60.8791 65.3507 60.4077 65.5187 60.0064 65.8547C59.6144 66.1814 59.3531 66.6107 59.2224 67.1427H63.6184C63.4971 66.6107 63.2357 66.1814 62.8344 65.8547C62.4424 65.5187 61.9711 65.3507 61.4204 65.3507ZM67.9913 64.2167V66.1067C68.2246 65.2574 68.5886 64.6834 69.0833 64.3847C69.5873 64.0861 70.1566 64.0114 70.7913 64.1607V65.5607C70.0166 65.3461 69.354 65.4161 68.8033 65.7707C68.262 66.1161 67.9913 66.6341 67.9913 67.3247V71.3707H66.5213V64.2167H67.9913ZM71.2165 69.4947C71.6085 69.4947 71.9258 69.6534 72.1685 69.9707C72.4205 70.2787 72.5465 70.6567 72.5465 71.1047C72.5465 71.7021 72.3925 72.2201 72.0845 72.6587C71.7765 73.1067 71.3518 73.4474 70.8105 73.6807L70.2085 72.8827C70.6565 72.6867 70.9738 72.4534 71.1605 72.1827C71.3565 71.9121 71.4451 71.6414 71.4265 71.3707C71.1278 71.4547 70.8478 71.4127 70.5865 71.2447C70.3345 71.0767 70.2085 70.8247 70.2085 70.4887C70.2085 70.2181 70.3065 69.9847 70.5025 69.7887C70.6985 69.5927 70.9365 69.4947 71.2165 69.4947ZM88.243 61.5707V71.3707H86.773V61.9067L84.421 71.3707H81.691L79.339 61.9067V71.3707H77.869V61.5707H80.739L83.063 70.9787L85.401 61.5707H88.243ZM92.9906 64.0767C93.8493 64.0767 94.5493 64.3007 95.0906 64.7487C95.6319 65.1967 95.9026 65.8407 95.9026 66.6807V71.3707H94.4326V69.4667C93.9939 70.8294 93.1119 71.5107 91.7866 71.5107C91.1706 71.5107 90.6573 71.3287 90.2466 70.9647C89.8359 70.5914 89.6306 70.1061 89.6306 69.5087C89.6306 68.8087 89.8779 68.2861 90.3726 67.9407C90.8673 67.5861 91.4973 67.3667 92.2626 67.2827L93.6486 67.1427C94.1713 67.0961 94.4326 66.8627 94.4326 66.4427C94.4326 66.0974 94.2973 65.8221 94.0266 65.6167C93.7653 65.4114 93.4199 65.3087 92.9906 65.3087C92.5519 65.3087 92.1786 65.4207 91.8706 65.6447C91.5719 65.8687 91.3806 66.1954 91.2966 66.6247L89.8406 66.2747C89.9713 65.6027 90.3213 65.0707 90.8906 64.6787C91.4599 64.2774 92.1599 64.0767 92.9906 64.0767ZM92.2626 70.3207C92.8693 70.3207 93.3826 70.1201 93.8026 69.7187C94.2226 69.3081 94.4326 68.8321 94.4326 68.2907V67.8987C94.3206 68.0854 94.0499 68.2021 93.6206 68.2487L92.2626 68.4167C91.9079 68.4634 91.6233 68.5707 91.4086 68.7387C91.2033 68.8974 91.1006 69.1167 91.1006 69.3967C91.1006 69.6767 91.2033 69.9007 91.4086 70.0687C91.6233 70.2367 91.9079 70.3207 92.2626 70.3207ZM101.52 64.0767C102.332 64.0767 102.995 64.3614 103.508 64.9307C104.021 65.5001 104.278 66.2234 104.278 67.1007V71.3707H102.808V67.3247C102.808 66.7741 102.631 66.3214 102.276 65.9667C101.921 65.6027 101.483 65.4207 100.96 65.4207C100.372 65.4207 99.8914 65.6027 99.5181 65.9667C99.1448 66.3214 98.9581 66.7741 98.9581 67.3247V71.3707H97.4881V61.0107H98.9581V66.0647C99.1541 65.4487 99.4761 64.9634 99.9241 64.6087C100.381 64.2541 100.913 64.0767 101.52 64.0767ZM114.353 64.0767C115.09 64.0767 115.692 64.3614 116.159 64.9307C116.635 65.5001 116.873 66.2234 116.873 67.1007V71.3707H115.403V67.3247C115.403 66.7741 115.249 66.3214 114.941 65.9667C114.642 65.6027 114.269 65.4207 113.821 65.4207C113.317 65.4207 112.902 65.6027 112.575 65.9667C112.258 66.3214 112.099 66.7741 112.099 67.3247V71.3707H110.629V67.3247C110.629 66.7741 110.48 66.3214 110.181 65.9667C109.882 65.6027 109.509 65.4207 109.061 65.4207C108.557 65.4207 108.142 65.6027 107.815 65.9667C107.498 66.3214 107.339 66.7741 107.339 67.3247V71.3707H105.869V64.2167H107.339V65.9667C107.535 65.3787 107.829 64.9167 108.221 64.5807C108.622 64.2447 109.089 64.0767 109.621 64.0767C110.19 64.0767 110.68 64.2587 111.091 64.6227C111.511 64.9774 111.805 65.4581 111.973 66.0647C112.141 65.4581 112.435 64.9774 112.855 64.6227C113.284 64.2587 113.784 64.0767 114.353 64.0767ZM118.35 68.4027V64.2167H119.82V68.4027C119.82 68.9254 119.988 69.3501 120.324 69.6767C120.66 69.9941 121.089 70.1527 121.612 70.1527C122.125 70.1527 122.55 69.9941 122.886 69.6767C123.222 69.3501 123.39 68.9254 123.39 68.4027V64.2167H124.86V68.4027C124.86 69.3174 124.552 70.0641 123.936 70.6427C123.329 71.2214 122.554 71.5107 121.612 71.5107C120.66 71.5107 119.876 71.2214 119.26 70.6427C118.653 70.0641 118.35 69.3174 118.35 68.4027ZM127.356 65.5187H125.83V64.2167H127.356V61.8927L128.826 61.4307V64.2167H130.842V65.5187H128.826V68.8227C128.826 69.2614 128.924 69.5787 129.12 69.7747C129.316 69.9707 129.629 70.0687 130.058 70.0687H130.842V71.3707H130.058C129.134 71.3707 128.453 71.1561 128.014 70.7267C127.576 70.2974 127.356 69.6394 127.356 68.7527V65.5187ZM133.685 71.3707H132.215V61.0107H133.685V71.3707ZM138.272 64.0767C139.131 64.0767 139.831 64.3007 140.372 64.7487C140.913 65.1967 141.184 65.8407 141.184 66.6807V71.3707H139.714V69.4667C139.275 70.8294 138.393 71.5107 137.068 71.5107C136.452 71.5107 135.939 71.3287 135.528 70.9647C135.117 70.5914 134.912 70.1061 134.912 69.5087C134.912 68.8087 135.159 68.2861 135.654 67.9407C136.149 67.5861 136.779 67.3667 137.544 67.2827L138.93 67.1427C139.453 67.0961 139.714 66.8627 139.714 66.4427C139.714 66.0974 139.579 65.8221 139.308 65.6167C139.047 65.4114 138.701 65.3087 138.272 65.3087C137.833 65.3087 137.46 65.4207 137.152 65.6447C136.853 65.8687 136.662 66.1954 136.578 66.6247L135.122 66.2747C135.253 65.6027 135.603 65.0707 136.172 64.6787C136.741 64.2774 137.441 64.0767 138.272 64.0767ZM137.544 70.3207C138.151 70.3207 138.664 70.1201 139.084 69.7187C139.504 69.3081 139.714 68.8321 139.714 68.2907V67.8987C139.602 68.0854 139.331 68.2021 138.902 68.2487L137.544 68.4167C137.189 68.4634 136.905 68.5707 136.69 68.7387C136.485 68.8974 136.382 69.1167 136.382 69.3967C136.382 69.6767 136.485 69.9007 136.69 70.0687C136.905 70.2367 137.189 70.3207 137.544 70.3207ZM144.239 64.2167V66.1067C144.473 65.2574 144.837 64.6834 145.331 64.3847C145.835 64.0861 146.405 64.0114 147.039 64.1607V65.5607C146.265 65.3461 145.602 65.4161 145.051 65.7707C144.51 66.1161 144.239 66.6341 144.239 67.3247V71.3707H142.769V64.2167H144.239Z" fill="black"/>
<path d="M183.842 26.0284C190.599 26.0284 196.076 20.5508 196.076 13.794C196.076 7.0371 190.599 1.55957 183.842 1.55957C177.085 1.55957 171.608 7.0371 171.608 13.794C171.608 20.5508 177.085 26.0284 183.842 26.0284Z" fill="#2F83FF" stroke="url(#paint1_linear_750_7788)" stroke-width="2"/>
<path d="M182.242 15.0929H179.03V12.3209H182.242V9.08691H185.212V12.3209H188.446V15.0929H185.212V18.3269H182.242V15.0929Z" fill="#EBF3FF"/>
<line x1="25" y1="75.5" x2="147" y2="75.5" stroke="black"/>
</g>
<defs>
<linearGradient id="paint0_linear_750_7788" x1="72.6993" y1="-29.0273" x2="47.8701" y2="133.011" gradientUnits="userSpaceOnUse">
<stop stop-color="#FFF6EC"/>
<stop offset="1" stop-color="white" stop-opacity="0.1"/>
</linearGradient>
<linearGradient id="paint1_linear_750_7788" x1="180.63" y1="-10.9893" x2="164.229" y2="35.9566" gradientUnits="userSpaceOnUse">
<stop stop-color="#FFF6EC"/>
<stop offset="1" stop-color="white" stop-opacity="0.1"/>
</linearGradient>
<clipPath id="clip0_750_7788">
<rect width="197" height="91" fill="white" transform="translate(0.5)"/>
</clipPath>
</defs>
</svg>
