<svg width="197" height="91" viewBox="0 0 197 91" fill="none" xmlns="http://www.w3.org/2000/svg">
<path d="M1.25391 37.3326C1.25391 30.2333 1.25603 25.0094 1.79416 21.0068C2.32843 17.033 3.37448 14.4131 5.35441 12.4331C7.33434 10.4532 9.95426 9.40717 13.9281 8.8729C17.9307 8.33477 23.1546 8.33264 30.2539 8.33264H160.254C167.353 8.33264 172.577 8.33477 176.58 8.8729C180.554 9.40717 183.173 10.4532 185.153 12.4331C187.133 14.4131 188.179 17.033 188.714 21.0068C189.252 25.0094 189.254 30.2333 189.254 37.3326V60.6664C189.254 67.7657 189.252 72.9896 188.714 76.9922C188.179 80.966 187.133 83.5859 185.153 85.5659C183.173 87.5458 180.554 88.5919 176.58 89.1261C172.577 89.6643 167.353 89.6664 160.254 89.6664H30.2539C23.1546 89.6664 17.9307 89.6643 13.9281 89.1261C9.95426 88.5919 7.33434 87.5458 5.35441 85.5659C3.37448 83.5859 2.32843 80.966 1.79416 76.9922C1.25603 72.9896 1.25391 67.7657 1.25391 60.6664V37.3326Z" fill="white" fill-opacity="0.3" stroke="url(#paint0_linear_1066_588)" stroke-width="2"/>
<path d="M39.8139 39.6039H36.4479L35.3479 36.2599H28.1099L27.0319 39.6039H23.8419L29.0339 24.2039H34.6219L39.8139 39.6039ZM31.7399 25.1279L29.0119 33.4659H34.4459L31.7399 25.1279ZM40.5482 39.8019H40.3502V37.1839H40.7242C41.5308 37.1839 42.0588 36.9932 42.3082 36.6119C42.5722 36.2159 42.7042 35.3212 42.7042 33.9279V28.2519H52.5382V39.6039H49.5682V30.8699H45.4982V33.9279C45.4982 35.9812 45.1315 37.4772 44.3982 38.4159C43.6648 39.3399 42.3815 39.8019 40.5482 39.8019ZM59.6646 28.0319C61.1019 28.0319 62.2679 28.4059 63.1626 29.1539C64.0573 29.9019 64.5046 30.9945 64.5046 32.4319V39.6039H61.5346V36.7879C60.9039 38.8119 59.5986 39.8239 57.6186 39.8239C56.6946 39.8239 55.9026 39.5232 55.2426 38.9219C54.5826 38.3205 54.2526 37.5359 54.2526 36.5679C54.2526 34.4412 55.7119 33.2239 58.6306 32.9159L60.4786 32.7399C61.1826 32.6959 61.5346 32.3952 61.5346 31.8379C61.5346 31.4272 61.3586 31.0972 61.0066 30.8479C60.6693 30.5985 60.2293 30.4739 59.6866 30.4739C59.0999 30.4739 58.6159 30.6279 58.2346 30.9359C57.8679 31.2292 57.6333 31.6472 57.5306 32.1899L54.5826 31.5299C54.7439 30.5179 55.2793 29.6819 56.1886 29.0219C57.0979 28.3619 58.2566 28.0319 59.6646 28.0319ZM58.6746 37.4699C59.4519 37.4699 60.1193 37.2059 60.6766 36.6779C61.2486 36.1499 61.5346 35.5412 61.5346 34.8519V34.5659C61.3586 34.7272 61.0213 34.8372 60.5226 34.8959L58.6086 35.1159C58.1833 35.1745 57.8459 35.3139 57.5966 35.5339C57.3473 35.7392 57.2226 36.0032 57.2226 36.3259C57.2226 36.6632 57.3546 36.9419 57.6186 37.1619C57.8826 37.3672 58.2346 37.4699 58.6746 37.4699ZM69.742 39.6039H66.772V28.2519H69.742V32.6299H74.89V28.2519H77.86V39.6039H74.89V35.2259H69.742V39.6039ZM86.1602 39.6039H80.2642V28.2519H83.2342V31.4639H86.1602C87.5095 31.4639 88.5875 31.8452 89.3942 32.6079C90.2155 33.3559 90.6262 34.3312 90.6262 35.5339C90.6262 36.7365 90.2155 37.7192 89.3942 38.4819C88.5875 39.2299 87.5095 39.6039 86.1602 39.6039ZM83.2342 34.0819V36.9859H85.8082C86.3362 36.9859 86.7542 36.8539 87.0622 36.5899C87.3848 36.3112 87.5462 35.9592 87.5462 35.5339C87.5462 35.1085 87.3848 34.7639 87.0622 34.4999C86.7542 34.2212 86.3362 34.0819 85.8082 34.0819H83.2342ZM96.1951 28.2519H102.223V39.6039H99.2531V35.9739H97.7791L95.0511 39.6039H91.6191L94.5451 35.7099C93.7531 35.4459 93.1224 34.9985 92.6531 34.3679C92.1984 33.7225 91.9711 32.9745 91.9711 32.1239C91.9711 30.9799 92.3598 30.0485 93.1371 29.3299C93.9291 28.6112 94.9484 28.2519 96.1951 28.2519ZM96.3711 33.3559H99.2531V30.8699H96.3711C95.9604 30.8699 95.6378 30.9945 95.4031 31.2439C95.1684 31.4785 95.0511 31.7719 95.0511 32.1239C95.0511 32.4905 95.1684 32.7912 95.4031 33.0259C95.6378 33.2459 95.9604 33.3559 96.3711 33.3559Z" fill="white"/>
<path d="M2.08594 50.123L188.084 50.1231" stroke="white" stroke-opacity="0.46"/>
<path d="M26.1 70.0544C25.12 69.0838 24.63 67.8891 24.63 66.4704C24.63 65.0518 25.12 63.8571 26.1 62.8864C27.0893 61.9158 28.3073 61.4304 29.754 61.4304C30.7993 61.4304 31.7233 61.7058 32.526 62.2564C33.3287 62.7978 33.912 63.4698 34.276 64.2724L32.848 64.8324C32.568 64.2444 32.1527 63.7684 31.602 63.4044C31.0607 63.0404 30.4447 62.8584 29.754 62.8584C28.7553 62.8584 27.9153 63.2084 27.234 63.9084C26.562 64.5991 26.226 65.4531 26.226 66.4704C26.226 67.4878 26.562 68.3464 27.234 69.0464C27.9153 69.7371 28.7553 70.0824 29.754 70.0824C30.4447 70.0824 31.0607 69.9004 31.602 69.5364C32.1527 69.1724 32.568 68.6964 32.848 68.1084L34.276 68.6684C33.912 69.4711 33.3287 70.1478 32.526 70.6984C31.7233 71.2398 30.7993 71.5104 29.754 71.5104C28.3073 71.5104 27.0893 71.0251 26.1 70.0544ZM38.8403 64.0764C39.9883 64.0764 40.9216 64.4871 41.6403 65.3084C42.359 66.1298 42.653 67.1238 42.5223 68.2904H36.6003C36.703 68.8691 36.969 69.3404 37.3983 69.7044C37.8276 70.0591 38.3456 70.2364 38.9523 70.2364C39.419 70.2364 39.8343 70.1244 40.1983 69.9004C40.5716 69.6671 40.861 69.3544 41.0663 68.9624L42.2983 69.5084C41.981 70.1151 41.5283 70.6004 40.9403 70.9644C40.3523 71.3284 39.6756 71.5104 38.9103 71.5104C37.837 71.5104 36.9363 71.1558 36.2083 70.4464C35.4803 69.7371 35.1163 68.8551 35.1163 67.8004C35.1163 66.7458 35.471 65.8638 36.1803 65.1544C36.899 64.4358 37.7856 64.0764 38.8403 64.0764ZM38.8403 65.3504C38.299 65.3504 37.8276 65.5184 37.4263 65.8544C37.0343 66.1811 36.773 66.6104 36.6423 67.1424H41.0383C40.917 66.6104 40.6556 66.1811 40.2543 65.8544C39.8623 65.5184 39.391 65.3504 38.8403 65.3504ZM47.9732 64.0764C48.7852 64.0764 49.4479 64.3611 49.9612 64.9304C50.4746 65.4998 50.7312 66.2231 50.7312 67.1004V71.3704H49.2612V67.3244C49.2612 66.7738 49.0839 66.3211 48.7292 65.9664C48.3746 65.6024 47.9359 65.4204 47.4132 65.4204C46.8252 65.4204 46.3446 65.6024 45.9712 65.9664C45.5979 66.3211 45.4112 66.7738 45.4112 67.3244V71.3704H43.9412V64.2164H45.4112V66.0644C45.6072 65.4484 45.9292 64.9631 46.3772 64.6084C46.8346 64.2538 47.3666 64.0764 47.9732 64.0764ZM52.9326 65.5184H51.4066V64.2164H52.9326V61.8924L54.4026 61.4304V64.2164H56.4186V65.5184H54.4026V68.8224C54.4026 69.2611 54.5006 69.5784 54.6966 69.7744C54.8926 69.9704 55.2053 70.0684 55.6346 70.0684H56.4186V71.3704H55.6346C54.7106 71.3704 54.0293 71.1558 53.5906 70.7264C53.152 70.2971 52.9326 69.6391 52.9326 68.7524V65.5184ZM60.9204 64.0764C62.0684 64.0764 63.0017 64.4871 63.7204 65.3084C64.4391 66.1298 64.7331 67.1238 64.6024 68.2904H58.6804C58.7831 68.8691 59.0491 69.3404 59.4784 69.7044C59.9077 70.0591 60.4257 70.2364 61.0324 70.2364C61.4991 70.2364 61.9144 70.1244 62.2784 69.9004C62.6517 69.6671 62.9411 69.3544 63.1464 68.9624L64.3784 69.5084C64.0611 70.1151 63.6084 70.6004 63.0204 70.9644C62.4324 71.3284 61.7557 71.5104 60.9904 71.5104C59.9171 71.5104 59.0164 71.1558 58.2884 70.4464C57.5604 69.7371 57.1964 68.8551 57.1964 67.8004C57.1964 66.7458 57.5511 65.8638 58.2604 65.1544C58.9791 64.4358 59.8657 64.0764 60.9204 64.0764ZM60.9204 65.3504C60.3791 65.3504 59.9077 65.5184 59.5064 65.8544C59.1144 66.1811 58.8531 66.6104 58.7224 67.1424H63.1184C62.9971 66.6104 62.7357 66.1811 62.3344 65.8544C61.9424 65.5184 61.4711 65.3504 60.9204 65.3504ZM67.4913 64.2164V66.1064C67.7246 65.2571 68.0886 64.6831 68.5833 64.3844C69.0873 64.0858 69.6566 64.0111 70.2913 64.1604V65.5604C69.5166 65.3458 68.854 65.4158 68.3033 65.7704C67.762 66.1158 67.4913 66.6338 67.4913 67.3244V71.3704H66.0213V64.2164H67.4913ZM70.7165 69.4944C71.1085 69.4944 71.4258 69.6531 71.6685 69.9704C71.9205 70.2784 72.0465 70.6564 72.0465 71.1044C72.0465 71.7018 71.8925 72.2198 71.5845 72.6584C71.2765 73.1064 70.8518 73.4471 70.3105 73.6804L69.7085 72.8824C70.1565 72.6864 70.4738 72.4531 70.6605 72.1824C70.8565 71.9118 70.9451 71.6411 70.9265 71.3704C70.6278 71.4544 70.3478 71.4124 70.0865 71.2444C69.8345 71.0764 69.7085 70.8244 69.7085 70.4884C69.7085 70.2178 69.8065 69.9844 70.0025 69.7884C70.1985 69.5924 70.4365 69.4944 70.7165 69.4944ZM87.743 61.5704V71.3704H86.273V61.9064L83.921 71.3704H81.191L78.839 61.9064V71.3704H77.369V61.5704H80.239L82.563 70.9784L84.901 61.5704H87.743ZM92.4906 64.0764C93.3493 64.0764 94.0493 64.3004 94.5906 64.7484C95.1319 65.1964 95.4026 65.8404 95.4026 66.6804V71.3704H93.9326V69.4664C93.4939 70.8291 92.6119 71.5104 91.2866 71.5104C90.6706 71.5104 90.1573 71.3284 89.7466 70.9644C89.3359 70.5911 89.1306 70.1058 89.1306 69.5084C89.1306 68.8084 89.3779 68.2858 89.8726 67.9404C90.3673 67.5858 90.9973 67.3664 91.7626 67.2824L93.1486 67.1424C93.6713 67.0958 93.9326 66.8624 93.9326 66.4424C93.9326 66.0971 93.7973 65.8218 93.5266 65.6164C93.2653 65.4111 92.9199 65.3084 92.4906 65.3084C92.0519 65.3084 91.6786 65.4204 91.3706 65.6444C91.0719 65.8684 90.8806 66.1951 90.7966 66.6244L89.3406 66.2744C89.4713 65.6024 89.8213 65.0704 90.3906 64.6784C90.9599 64.2771 91.6599 64.0764 92.4906 64.0764ZM91.7626 70.3204C92.3693 70.3204 92.8826 70.1198 93.3026 69.7184C93.7226 69.3078 93.9326 68.8318 93.9326 68.2904V67.8984C93.8206 68.0851 93.5499 68.2018 93.1206 68.2484L91.7626 68.4164C91.4079 68.4631 91.1233 68.5704 90.9086 68.7384C90.7033 68.8971 90.6006 69.1164 90.6006 69.3964C90.6006 69.6764 90.7033 69.9004 90.9086 70.0684C91.1233 70.2364 91.4079 70.3204 91.7626 70.3204ZM101.02 64.0764C101.832 64.0764 102.495 64.3611 103.008 64.9304C103.521 65.4998 103.778 66.2231 103.778 67.1004V71.3704H102.308V67.3244C102.308 66.7738 102.131 66.3211 101.776 65.9664C101.421 65.6024 100.983 65.4204 100.46 65.4204C99.8721 65.4204 99.3914 65.6024 99.0181 65.9664C98.6448 66.3211 98.4581 66.7738 98.4581 67.3244V71.3704H96.9881V61.0104H98.4581V66.0644C98.6541 65.4484 98.9761 64.9631 99.4241 64.6084C99.8814 64.2538 100.413 64.0764 101.02 64.0764ZM113.853 64.0764C114.59 64.0764 115.192 64.3611 115.659 64.9304C116.135 65.4998 116.373 66.2231 116.373 67.1004V71.3704H114.903V67.3244C114.903 66.7738 114.749 66.3211 114.441 65.9664C114.142 65.6024 113.769 65.4204 113.321 65.4204C112.817 65.4204 112.402 65.6024 112.075 65.9664C111.758 66.3211 111.599 66.7738 111.599 67.3244V71.3704H110.129V67.3244C110.129 66.7738 109.98 66.3211 109.681 65.9664C109.382 65.6024 109.009 65.4204 108.561 65.4204C108.057 65.4204 107.642 65.6024 107.315 65.9664C106.998 66.3211 106.839 66.7738 106.839 67.3244V71.3704H105.369V64.2164H106.839V65.9664C107.035 65.3784 107.329 64.9164 107.721 64.5804C108.122 64.2444 108.589 64.0764 109.121 64.0764C109.69 64.0764 110.18 64.2584 110.591 64.6224C111.011 64.9771 111.305 65.4578 111.473 66.0644C111.641 65.4578 111.935 64.9771 112.355 64.6224C112.784 64.2584 113.284 64.0764 113.853 64.0764ZM117.85 68.4024V64.2164H119.32V68.4024C119.32 68.9251 119.488 69.3498 119.824 69.6764C120.16 69.9938 120.589 70.1524 121.112 70.1524C121.625 70.1524 122.05 69.9938 122.386 69.6764C122.722 69.3498 122.89 68.9251 122.89 68.4024V64.2164H124.36V68.4024C124.36 69.3171 124.052 70.0638 123.436 70.6424C122.829 71.2211 122.054 71.5104 121.112 71.5104C120.16 71.5104 119.376 71.2211 118.76 70.6424C118.153 70.0638 117.85 69.3171 117.85 68.4024ZM126.856 65.5184H125.33V64.2164H126.856V61.8924L128.326 61.4304V64.2164H130.342V65.5184H128.326V68.8224C128.326 69.2611 128.424 69.5784 128.62 69.7744C128.816 69.9704 129.129 70.0684 129.558 70.0684H130.342V71.3704H129.558C128.634 71.3704 127.953 71.1558 127.514 70.7264C127.076 70.2971 126.856 69.6391 126.856 68.7524V65.5184ZM133.185 71.3704H131.715V61.0104H133.185V71.3704ZM137.772 64.0764C138.631 64.0764 139.331 64.3004 139.872 64.7484C140.413 65.1964 140.684 65.8404 140.684 66.6804V71.3704H139.214V69.4664C138.775 70.8291 137.893 71.5104 136.568 71.5104C135.952 71.5104 135.439 71.3284 135.028 70.9644C134.617 70.5911 134.412 70.1058 134.412 69.5084C134.412 68.8084 134.659 68.2858 135.154 67.9404C135.649 67.5858 136.279 67.3664 137.044 67.2824L138.43 67.1424C138.953 67.0958 139.214 66.8624 139.214 66.4424C139.214 66.0971 139.079 65.8218 138.808 65.6164C138.547 65.4111 138.201 65.3084 137.772 65.3084C137.333 65.3084 136.96 65.4204 136.652 65.6444C136.353 65.8684 136.162 66.1951 136.078 66.6244L134.622 66.2744C134.753 65.6024 135.103 65.0704 135.672 64.6784C136.241 64.2771 136.941 64.0764 137.772 64.0764ZM137.044 70.3204C137.651 70.3204 138.164 70.1198 138.584 69.7184C139.004 69.3078 139.214 68.8318 139.214 68.2904V67.8984C139.102 68.0851 138.831 68.2018 138.402 68.2484L137.044 68.4164C136.689 68.4631 136.405 68.5704 136.19 68.7384C135.985 68.8971 135.882 69.1164 135.882 69.3964C135.882 69.6764 135.985 69.9004 136.19 70.0684C136.405 70.2364 136.689 70.3204 137.044 70.3204ZM143.739 64.2164V66.1064C143.973 65.2571 144.337 64.6831 144.831 64.3844C145.335 64.0858 145.905 64.0111 146.539 64.1604V65.5604C145.765 65.3458 145.102 65.4158 144.551 65.7704C144.01 66.1158 143.739 66.6338 143.739 67.3244V71.3704H142.269V64.2164H143.739Z" fill="black"/>
<circle cx="183.342" cy="13.7941" r="12.2344" fill="#2F83FF" stroke="url(#paint1_linear_1066_588)" stroke-width="2"/>
<path d="M181.742 15.0926H178.53V12.3206H181.742V9.08665H184.712V12.3206H187.946V15.0926H184.712V18.3266H181.742V15.0926Z" fill="#EBF3FF"/>
<defs>
<linearGradient id="paint0_linear_1066_588" x1="72.1993" y1="-29.0277" x2="47.3701" y2="133.011" gradientUnits="userSpaceOnUse">
<stop stop-color="#FFF6EC"/>
<stop offset="1" stop-color="white" stop-opacity="0.1"/>
</linearGradient>
<linearGradient id="paint1_linear_1066_588" x1="180.13" y1="-10.9892" x2="163.729" y2="35.9567" gradientUnits="userSpaceOnUse">
<stop stop-color="#FFF6EC"/>
<stop offset="1" stop-color="white" stop-opacity="0.1"/>
</linearGradient>
</defs>
</svg>
