<svg width="195" height="91" viewBox="0 0 195 91" fill="none" xmlns="http://www.w3.org/2000/svg">
<g clip-path="url(#clip0_750_7795)">
<path d="M1.75391 37.333C1.75391 30.2337 1.75603 25.0098 2.29416 21.0072C2.82843 17.0334 3.87448 14.4135 5.85441 12.4335C7.83434 10.4536 10.4543 9.40754 14.4281 8.87327C18.4307 8.33514 23.6546 8.33301 30.7539 8.33301H160.754C167.853 8.33301 173.077 8.33514 177.08 8.87327C181.054 9.40754 183.673 10.4536 185.653 12.4335C187.633 14.4135 188.679 17.0334 189.214 21.0072C189.752 25.0098 189.754 30.2337 189.754 37.333V60.6668C189.754 67.7661 189.752 72.99 189.214 76.9926C188.679 80.9664 187.633 83.5863 185.653 85.5663C183.673 87.5462 181.054 88.5923 177.08 89.1265C173.077 89.6647 167.853 89.6668 160.754 89.6668H30.7539C23.6546 89.6668 18.4307 89.6647 14.4281 89.1265C10.4543 88.5923 7.83434 87.5462 5.85441 85.5663C3.87448 83.5863 2.82843 80.9664 2.29416 76.9926C1.75603 72.99 1.75391 67.7661 1.75391 60.6668V37.333Z" fill="white" fill-opacity="0.3" stroke="url(#paint0_linear_750_7795)" stroke-width="2"/>
<path d="M24.834 37.5355C23.2793 36.0101 22.502 34.1328 22.502 31.9035C22.502 29.6741 23.2793 27.7968 24.834 26.2715C26.3887 24.7461 28.31 23.9835 30.598 23.9835C32.2847 23.9835 33.766 24.4161 35.042 25.2815C36.318 26.1468 37.2347 27.2028 37.792 28.4495L34.888 29.5715C34.5067 28.7795 33.9347 28.1341 33.172 27.6355C32.424 27.1221 31.566 26.8655 30.598 26.8655C29.234 26.8655 28.0827 27.3495 27.144 28.3175C26.22 29.2855 25.758 30.4808 25.758 31.9035C25.758 33.3261 26.22 34.5215 27.144 35.4895C28.0827 36.4575 29.234 36.9415 30.598 36.9415C31.566 36.9415 32.424 36.6921 33.172 36.1935C33.9347 35.6801 34.5067 35.0275 34.888 34.2355L37.792 35.3575C37.2347 36.6041 36.318 37.6601 35.042 38.5255C33.766 39.3908 32.2847 39.8235 30.598 39.8235C28.31 39.8235 26.3887 39.0608 24.834 37.5355ZM44.9743 39.6035H42.0043V30.8695H38.2863V28.2515H48.6703V30.8695H44.9743V39.6035ZM54.7214 28.0315C56.1587 28.0315 57.3247 28.4055 58.2194 29.1535C59.114 29.9015 59.5614 30.9941 59.5614 32.4315V39.6035H56.5914V36.7875C55.9607 38.8115 54.6554 39.8235 52.6754 39.8235C51.7514 39.8235 50.9594 39.5228 50.2994 38.9215C49.6394 38.3201 49.3094 37.5355 49.3094 36.5675C49.3094 34.4408 50.7687 33.2235 53.6874 32.9155L55.5354 32.7395C56.2394 32.6955 56.5914 32.3948 56.5914 31.8375C56.5914 31.4268 56.4154 31.0968 56.0634 30.8475C55.726 30.5981 55.286 30.4735 54.7434 30.4735C54.1567 30.4735 53.6727 30.6275 53.2914 30.9355C52.9247 31.2288 52.69 31.6468 52.5874 32.1895L49.6394 31.5295C49.8007 30.5175 50.336 29.6815 51.2454 29.0215C52.1547 28.3615 53.3134 28.0315 54.7214 28.0315ZM53.7314 37.4695C54.5087 37.4695 55.176 37.2055 55.7334 36.6775C56.3054 36.1495 56.5914 35.5408 56.5914 34.8515V34.5655C56.4154 34.7268 56.078 34.8368 55.5794 34.8955L53.6654 35.1155C53.24 35.1741 52.9027 35.3135 52.6534 35.5335C52.404 35.7388 52.2794 36.0028 52.2794 36.3255C52.2794 36.6628 52.4114 36.9415 52.6754 37.1615C52.9394 37.3668 53.2914 37.4695 53.7314 37.4695ZM75.7547 28.2515V39.6035H73.1367V28.8675L71.2007 39.6035H66.3827L64.4467 28.8675V39.6035H61.8287V28.2515H66.8667L68.7807 38.8115L70.6947 28.2515H75.7547ZM85.1754 28.4715C86.554 28.4715 87.7127 29.0068 88.6514 30.0775C89.59 31.1481 90.0594 32.4461 90.0594 33.9715C90.0594 35.6581 89.48 37.0588 88.3214 38.1735C87.1774 39.2735 85.7474 39.8235 84.0314 39.8235C82.2567 39.8235 80.79 39.2368 79.6314 38.0635C78.4874 36.8901 77.9154 35.2695 77.9154 33.2015C77.9154 28.6988 79.1914 25.8388 81.7434 24.6215C82.5794 24.2255 83.7967 23.9321 85.3954 23.7415C87.0087 23.5361 88.2554 23.3235 89.1354 23.1035V25.7875C88.446 25.9928 87.39 26.1835 85.9674 26.3595C84.5594 26.5208 83.606 26.7188 83.1074 26.9535C81.846 27.5401 81.1567 29.1168 81.0394 31.6835C81.274 30.8621 81.7654 30.1215 82.5134 29.4615C83.2614 28.8015 84.1487 28.4715 85.1754 28.4715ZM84.0314 37.1175C84.8674 37.1175 85.564 36.8388 86.1214 36.2815C86.6934 35.7095 86.9794 34.9981 86.9794 34.1475C86.9794 33.3115 86.7007 32.6075 86.1434 32.0355C85.6007 31.4635 84.9333 31.1775 84.1413 31.1775C83.2466 31.1775 82.5134 31.4635 81.9414 32.0355C81.3694 32.5928 81.0834 33.2968 81.0834 34.1475C81.0834 34.9981 81.3619 35.7095 81.9193 36.2815C82.4766 36.8388 83.1807 37.1175 84.0314 37.1175ZM96.2946 38.8115L99.4846 28.2515H102.499L97.7246 44.0035H94.7106L96.0526 39.6035H93.6546L90.1786 28.2515H93.3906L96.2946 38.8115ZM101.949 39.8015H101.751V37.1835H102.125C102.931 37.1835 103.459 36.9928 103.709 36.6115C103.973 36.2155 104.105 35.3208 104.105 33.9275V28.2515H113.939V39.6035H110.969V30.8695H106.899V33.9275C106.899 35.9808 106.532 37.4768 105.799 38.4155C105.065 39.3395 103.782 39.8015 101.949 39.8015Z" fill="white"/>
<path d="M2.75586 50.123L188.754 50.1231" stroke="white" stroke-opacity="0.46"/>
<path d="M31.7919 74.6041H30.1399L29.2999 72.2381H24.3019L23.4619 74.6041H21.8799L25.4639 64.8041H28.2079L31.7919 74.6041ZM26.8079 65.2521L24.8059 70.8521H28.7959L26.8079 65.2521ZM36.3221 70.4321L39.6261 74.6041H37.7641L35.3281 71.5241L34.2081 72.7281V74.6041H32.7381V64.2441H34.2081V70.7961L37.2321 67.4501H39.0801L36.3221 70.4321ZM39.824 72.7141L41.294 72.4061C41.4246 73.1714 41.9473 73.5541 42.862 73.5541C43.3286 73.5541 43.702 73.4654 43.982 73.2881C44.2713 73.1014 44.416 72.8681 44.416 72.5881C44.416 72.2894 44.2666 72.0654 43.968 71.9161C43.6693 71.7574 43.3053 71.6454 42.876 71.5801C42.4466 71.5054 42.0126 71.4167 41.574 71.3141C41.1446 71.2114 40.7806 71.0107 40.482 70.7121C40.1833 70.4041 40.034 69.9934 40.034 69.4801C40.034 68.8547 40.3 68.3367 40.832 67.9261C41.3733 67.5154 42.05 67.3101 42.862 67.3101C43.674 67.3101 44.3366 67.4921 44.85 67.8561C45.3726 68.2201 45.6853 68.7147 45.788 69.3401L44.318 69.6481C44.206 68.8827 43.7206 68.5001 42.862 68.5001C42.47 68.5001 42.148 68.5841 41.896 68.7521C41.644 68.9201 41.518 69.1394 41.518 69.4101C41.518 69.6527 41.6253 69.8487 41.84 69.9981C42.0546 70.1474 42.3253 70.2454 42.652 70.2921C42.9786 70.3387 43.3286 70.4087 43.702 70.5021C44.0846 70.5954 44.4393 70.7027 44.766 70.8241C45.0926 70.9361 45.3633 71.1414 45.578 71.4401C45.7926 71.7387 45.9 72.1121 45.9 72.5601C45.9 73.1854 45.606 73.7081 45.018 74.1281C44.4393 74.5387 43.7206 74.7441 42.862 74.7441C42.0126 74.7441 41.322 74.5621 40.79 74.1981C40.258 73.8341 39.936 73.3394 39.824 72.7141ZM50.0746 67.3101C50.9333 67.3101 51.6333 67.5341 52.1746 67.9821C52.7159 68.4301 52.9866 69.0741 52.9866 69.9141V74.6041H51.5166V72.7001C51.0779 74.0627 50.1959 74.7441 48.8706 74.7441C48.2546 74.7441 47.7413 74.5621 47.3306 74.1981C46.9199 73.8247 46.7146 73.3394 46.7146 72.7421C46.7146 72.0421 46.9619 71.5194 47.4566 71.1741C47.9513 70.8194 48.5813 70.6001 49.3466 70.5161L50.7326 70.3761C51.2553 70.3294 51.5166 70.0961 51.5166 69.6761C51.5166 69.3307 51.3813 69.0554 51.1106 68.8501C50.8493 68.6447 50.5039 68.5421 50.0746 68.5421C49.6359 68.5421 49.2626 68.6541 48.9546 68.8781C48.6559 69.1021 48.4646 69.4287 48.3806 69.8581L46.9246 69.5081C47.0553 68.8361 47.4053 68.3041 47.9746 67.9121C48.5439 67.5107 49.2439 67.3101 50.0746 67.3101ZM49.3466 73.5541C49.9533 73.5541 50.4666 73.3534 50.8866 72.9521C51.3066 72.5414 51.5166 72.0654 51.5166 71.5241V71.1321C51.4046 71.3187 51.1339 71.4354 50.7046 71.4821L49.3466 71.6501C48.9919 71.6967 48.7073 71.8041 48.4926 71.9721C48.2873 72.1307 48.1846 72.3501 48.1846 72.6301C48.1846 72.9101 48.2873 73.1341 48.4926 73.3021C48.7073 73.4701 48.9919 73.5541 49.3466 73.5541ZM56.0421 67.4501V69.3401C56.2754 68.4907 56.6394 67.9167 57.1341 67.6181C57.6381 67.3194 58.2074 67.2447 58.8421 67.3941V68.7941C58.0674 68.5794 57.4048 68.6494 56.8541 69.0041C56.3128 69.3494 56.0421 69.8674 56.0421 70.5581V74.6041H54.5721V67.4501H56.0421ZM62.475 67.3101C63.3337 67.3101 64.0337 67.5341 64.575 67.9821C65.1163 68.4301 65.387 69.0741 65.387 69.9141V74.6041H63.917V72.7001C63.4783 74.0627 62.5963 74.7441 61.271 74.7441C60.655 74.7441 60.1417 74.5621 59.731 74.1981C59.3203 73.8247 59.115 73.3394 59.115 72.7421C59.115 72.0421 59.3623 71.5194 59.857 71.1741C60.3517 70.8194 60.9817 70.6001 61.747 70.5161L63.133 70.3761C63.6557 70.3294 63.917 70.0961 63.917 69.6761C63.917 69.3307 63.7817 69.0554 63.511 68.8501C63.2497 68.6447 62.9043 68.5421 62.475 68.5421C62.0363 68.5421 61.663 68.6541 61.355 68.8781C61.0563 69.1021 60.865 69.4287 60.781 69.8581L59.325 69.5081C59.4557 68.8361 59.8057 68.3041 60.375 67.9121C60.9443 67.5107 61.6443 67.3101 62.475 67.3101ZM61.747 73.5541C62.3537 73.5541 62.867 73.3534 63.287 72.9521C63.707 72.5414 63.917 72.0654 63.917 71.5241V71.1321C63.805 71.3187 63.5343 71.4354 63.105 71.4821L61.747 71.6501C61.3923 71.6967 61.1077 71.8041 60.893 71.9721C60.6877 72.1307 60.585 72.3501 60.585 72.6301C60.585 72.9101 60.6877 73.1341 60.893 73.3021C61.1077 73.4701 61.3923 73.5541 61.747 73.5541ZM69.6654 74.1981L71.9334 67.4501H73.4314L70.0714 77.4041H68.5734L69.5254 74.6041H68.3634L65.9274 67.4501H67.5234L69.6654 74.1981Z" fill="black"/>
<path d="M180.539 26.0284C187.296 26.0284 192.773 20.5508 192.773 13.794C192.773 7.0371 187.296 1.55957 180.539 1.55957C173.782 1.55957 168.305 7.0371 168.305 13.794C168.305 20.5508 173.782 26.0284 180.539 26.0284Z" fill="#2F83FF" stroke="url(#paint1_linear_750_7795)" stroke-width="2"/>
<path d="M178.939 15.0929H175.727V12.3209H178.939V9.08691H181.909V12.3209H185.143V15.0929H181.909V18.3269H178.939V15.0929Z" fill="#EBF3FF"/>
<line x1="22" y1="78.5" x2="73" y2="78.5" stroke="black"/>
</g>
<defs>
<linearGradient id="paint0_linear_750_7795" x1="72.6993" y1="-29.0273" x2="47.8701" y2="133.011" gradientUnits="userSpaceOnUse">
<stop stop-color="#FFF6EC"/>
<stop offset="1" stop-color="white" stop-opacity="0.1"/>
</linearGradient>
<linearGradient id="paint1_linear_750_7795" x1="177.327" y1="-10.9893" x2="160.926" y2="35.9566" gradientUnits="userSpaceOnUse">
<stop stop-color="#FFF6EC"/>
<stop offset="1" stop-color="white" stop-opacity="0.1"/>
</linearGradient>
<clipPath id="clip0_750_7795">
<rect width="194" height="91" fill="white" transform="translate(0.5)"/>
</clipPath>
</defs>
</svg>
