<svg width="196" height="91" viewBox="0 0 196 91" fill="none" xmlns="http://www.w3.org/2000/svg">
<path d="M1.25391 37.3326C1.25391 30.2333 1.25603 25.0094 1.79416 21.0068C2.32843 17.033 3.37448 14.413 5.35441 12.4331C7.33434 10.4532 9.95426 9.40713 13.9281 8.87287C17.9307 8.33473 23.1546 8.33261 30.2539 8.33261H160.254C167.353 8.33261 172.577 8.33473 176.58 8.87287C180.554 9.40714 183.173 10.4532 185.153 12.4331C187.133 14.413 188.179 17.033 188.714 21.0068C189.252 25.0094 189.254 30.2333 189.254 37.3326V60.6664C189.254 67.7657 189.252 72.9896 188.714 76.9922C188.179 80.966 187.133 83.5859 185.153 85.5658C183.173 87.5458 180.554 88.5918 176.58 89.1261C172.577 89.6642 167.353 89.6664 160.254 89.6664H30.2539C23.1546 89.6664 17.9307 89.6642 13.9281 89.1261C9.95426 88.5918 7.33434 87.5458 5.35441 85.5658C3.37448 83.5859 2.32843 80.966 1.79416 76.9922C1.25603 72.9896 1.25391 67.7657 1.25391 60.6664V37.3326Z" fill="white" fill-opacity="0.3" stroke="url(#paint0_linear_1066_587)" stroke-width="2"/>
<path d="M38.8139 39.6038H35.4479L34.3479 36.2598H27.1099L26.0319 39.6038H22.8419L28.0339 24.2038H33.6219L38.8139 39.6038ZM30.7399 25.1278L28.0119 33.4658H33.4459L30.7399 25.1278ZM43.0682 39.6038H40.0982V28.2518H43.0682V32.6298H48.2162V28.2518H51.1862V39.6038H48.2162V35.2258H43.0682V39.6038ZM59.5523 39.6038H56.5823V30.8698H52.8643V28.2518H63.2483V30.8698H59.5523V39.6038ZM69.2994 28.0318C70.7367 28.0318 71.9027 28.4058 72.7974 29.1538C73.692 29.9018 74.1394 30.9945 74.1394 32.4318V39.6038H71.1694V36.7878C70.5387 38.8118 69.2334 39.8238 67.2534 39.8238C66.3294 39.8238 65.5374 39.5232 64.8774 38.9218C64.2174 38.3205 63.8874 37.5358 63.8874 36.5678C63.8874 34.4412 65.3467 33.2238 68.2654 32.9158L70.1134 32.7398C70.8174 32.6958 71.1694 32.3952 71.1694 31.8378C71.1694 31.4272 70.9934 31.0972 70.6414 30.8478C70.304 30.5985 69.864 30.4738 69.3214 30.4738C68.7347 30.4738 68.2507 30.6278 67.8694 30.9358C67.5027 31.2292 67.268 31.6472 67.1654 32.1898L64.2174 31.5298C64.3787 30.5178 64.914 29.6818 65.8234 29.0218C66.7327 28.3618 67.8914 28.0318 69.2994 28.0318ZM68.3094 37.4698C69.0867 37.4698 69.754 37.2058 70.3114 36.6778C70.8834 36.1498 71.1694 35.5412 71.1694 34.8518V34.5658C70.9934 34.7272 70.656 34.8372 70.1574 34.8958L68.2434 35.1158C67.818 35.1745 67.4807 35.3138 67.2314 35.5338C66.982 35.7392 66.8574 36.0032 66.8574 36.3258C66.8574 36.6632 66.9894 36.9418 67.2534 37.1618C67.5174 37.3672 67.8694 37.4698 68.3094 37.4698ZM75.8568 39.8018H75.6588V37.1838H76.0328C76.8394 37.1838 77.3674 36.9932 77.6168 36.6118C77.8808 36.2158 78.0128 35.3212 78.0128 33.9278V28.2518H87.8468V39.6038H84.8768V30.8698H80.8068V33.9278C80.8068 35.9812 80.4401 37.4772 79.7068 38.4158C78.9734 39.3398 77.6901 39.8018 75.8568 39.8018ZM96.1172 39.6038H90.2212V28.2518H93.1912V31.4638H96.1172C97.4665 31.4638 98.5445 31.8452 99.3512 32.6078C100.173 33.3558 100.583 34.3312 100.583 35.5338C100.583 36.7365 100.173 37.7192 99.3512 38.4818C98.5445 39.2298 97.4665 39.6038 96.1172 39.6038ZM93.1912 34.0818V36.9858H95.7652C96.2932 36.9858 96.7112 36.8538 97.0192 36.5898C97.3419 36.3112 97.5032 35.9592 97.5032 35.5338C97.5032 35.1085 97.3419 34.7638 97.0192 34.4998C96.7112 34.2212 96.2932 34.0818 95.7652 34.0818H93.1912ZM106.152 28.2518H112.18V39.6038H109.21V35.9738H107.736L105.008 39.6038H101.576L104.502 35.7098C103.71 35.4458 103.079 34.9985 102.61 34.3678C102.155 33.7225 101.928 32.9745 101.928 32.1238C101.928 30.9798 102.317 30.0485 103.094 29.3298C103.886 28.6112 104.905 28.2518 106.152 28.2518ZM106.328 33.3558H109.21V30.8698H106.328C105.917 30.8698 105.595 30.9945 105.36 31.2438C105.125 31.4785 105.008 31.7718 105.008 32.1238C105.008 32.4905 105.125 32.7912 105.36 33.0258C105.595 33.2458 105.917 33.3558 106.328 33.3558Z" fill="white"/>
<path d="M2.25586 50.123L188.254 50.123" stroke="white" stroke-opacity="0.46"/>
<path d="M27.6259 65.569L31.8399 71.351H29.9639L26.5619 66.745L25.1339 68.313V71.351H23.5799V61.551H25.1339V66.185L29.3479 61.551H31.2939L27.6259 65.569ZM32.9368 70.427C32.2088 69.7176 31.8448 68.8356 31.8448 67.781C31.8448 66.7263 32.2088 65.8443 32.9368 65.135C33.6648 64.4163 34.5655 64.057 35.6388 64.057C36.7122 64.057 37.6128 64.4163 38.3408 65.135C39.0688 65.8443 39.4328 66.7263 39.4328 67.781C39.4328 68.8356 39.0688 69.7176 38.3408 70.427C37.6128 71.1363 36.7122 71.491 35.6388 71.491C34.5655 71.491 33.6648 71.1363 32.9368 70.427ZM34.0148 66.101C33.5762 66.549 33.3568 67.109 33.3568 67.781C33.3568 68.453 33.5762 69.013 34.0148 69.461C34.4535 69.909 34.9948 70.133 35.6388 70.133C36.2922 70.133 36.8335 69.909 37.2628 69.461C37.7015 69.013 37.9208 68.453 37.9208 67.781C37.9208 67.0996 37.7015 66.535 37.2628 66.087C36.8335 65.639 36.2922 65.415 35.6388 65.415C34.9948 65.415 34.4535 65.6436 34.0148 66.101ZM44.8385 64.057C45.6505 64.057 46.3131 64.3416 46.8265 64.911C47.3398 65.4803 47.5965 66.2036 47.5965 67.081V71.351H46.1265V67.305C46.1265 66.7543 45.9491 66.3016 45.5945 65.947C45.2398 65.583 44.8011 65.401 44.2785 65.401C43.6905 65.401 43.2098 65.583 42.8365 65.947C42.4631 66.3016 42.2765 66.7543 42.2765 67.305V71.351H40.8065V64.197H42.2765V66.045C42.4725 65.429 42.7945 64.9436 43.2425 64.589C43.6998 64.2343 44.2318 64.057 44.8385 64.057ZM51.8803 70.945L54.1483 64.197H55.6463L52.2863 74.151H50.7883L51.7403 71.351H50.5783L48.1422 64.197H49.7383L51.8803 70.945ZM59.1957 64.057C60.0544 64.057 60.7544 64.281 61.2957 64.729C61.837 65.177 62.1077 65.821 62.1077 66.661V71.351H60.6377V69.447C60.199 70.8096 59.317 71.491 57.9917 71.491C57.3757 71.491 56.8624 71.309 56.4517 70.945C56.041 70.5716 55.8357 70.0863 55.8357 69.489C55.8357 68.789 56.083 68.2663 56.5777 67.921C57.0724 67.5663 57.7024 67.347 58.4677 67.263L59.8537 67.123C60.3764 67.0763 60.6377 66.843 60.6377 66.423C60.6377 66.0776 60.5024 65.8023 60.2317 65.597C59.9704 65.3916 59.625 65.289 59.1957 65.289C58.757 65.289 58.3837 65.401 58.0757 65.625C57.777 65.849 57.5857 66.1756 57.5017 66.605L56.0457 66.255C56.1764 65.583 56.5264 65.051 57.0957 64.659C57.665 64.2576 58.365 64.057 59.1957 64.057ZM58.4677 70.301C59.0744 70.301 59.5877 70.1003 60.0077 69.699C60.4277 69.2883 60.6377 68.8123 60.6377 68.271V67.879C60.5257 68.0656 60.255 68.1823 59.8257 68.229L58.4677 68.397C58.113 68.4436 57.8284 68.551 57.6137 68.719C57.4084 68.8776 57.3057 69.097 57.3057 69.377C57.3057 69.657 57.4084 69.881 57.6137 70.049C57.8284 70.217 58.113 70.301 58.4677 70.301ZM66.6332 64.057C67.4919 64.057 68.1919 64.281 68.7332 64.729C69.2745 65.177 69.5452 65.821 69.5452 66.661V71.351H68.0752V69.447C67.6365 70.8096 66.7545 71.491 65.4292 71.491C64.8132 71.491 64.2999 71.309 63.8892 70.945C63.4785 70.5716 63.2732 70.0863 63.2732 69.489C63.2732 68.789 63.5205 68.2663 64.0152 67.921C64.5099 67.5663 65.1399 67.347 65.9052 67.263L67.2912 67.123C67.8139 67.0763 68.0752 66.843 68.0752 66.423C68.0752 66.0776 67.9399 65.8023 67.6692 65.597C67.4079 65.3916 67.0625 65.289 66.6332 65.289C66.1945 65.289 65.8212 65.401 65.5132 65.625C65.2145 65.849 65.0232 66.1756 64.9392 66.605L63.4832 66.255C63.6139 65.583 63.9639 65.051 64.5332 64.659C65.1025 64.2576 65.8025 64.057 66.6332 64.057ZM65.9052 70.301C66.5119 70.301 67.0252 70.1003 67.4452 69.699C67.8652 69.2883 68.0752 68.8123 68.0752 68.271V67.879C67.9632 68.0656 67.6925 68.1823 67.2632 68.229L65.9052 68.397C65.5505 68.4436 65.2659 68.551 65.0512 68.719C64.8459 68.8776 64.7432 69.097 64.7432 69.377C64.7432 69.657 64.8459 69.881 65.0512 70.049C65.2659 70.217 65.5505 70.301 65.9052 70.301ZM72.6007 71.351H71.1307V60.991H72.6007V71.351ZM75.2139 65.499H73.6879V64.197H75.2139V61.873L76.6839 61.411V64.197H78.6999V65.499H76.6839V68.803C76.6839 69.2416 76.7819 69.559 76.9779 69.755C77.1739 69.951 77.4865 70.049 77.9159 70.049H78.6999V71.351H77.9159C76.9919 71.351 76.3105 71.1363 75.8719 70.707C75.4332 70.2776 75.2139 69.6196 75.2139 68.733V65.499ZM81.5421 71.351H80.0721V64.197H81.5421V71.351ZM84.0153 69.475C84.4073 69.475 84.7246 69.6336 84.9673 69.951C85.2193 70.259 85.3453 70.637 85.3453 71.085C85.3453 71.6823 85.1913 72.2003 84.8833 72.639C84.5753 73.087 84.1506 73.4276 83.6093 73.661L83.0073 72.863C83.4553 72.667 83.7726 72.4336 83.9593 72.163C84.1553 71.8923 84.2439 71.6216 84.2253 71.351C83.9266 71.435 83.6466 71.393 83.3853 71.225C83.1333 71.057 83.0073 70.805 83.0073 70.469C83.0073 70.1983 83.1053 69.965 83.3013 69.769C83.4973 69.573 83.7353 69.475 84.0153 69.475ZM101.042 61.551V71.351H99.5718V61.887L97.2198 71.351H94.4898L92.1378 61.887V71.351H90.6678V61.551H93.5378L95.8618 70.959L98.1998 61.551H101.042ZM102.779 68.383V64.197H104.249V68.383C104.249 68.9056 104.417 69.3303 104.753 69.657C105.089 69.9743 105.519 70.133 106.041 70.133C106.555 70.133 106.979 69.9743 107.315 69.657C107.651 69.3303 107.819 68.9056 107.819 68.383V64.197H109.289V68.383C109.289 69.2976 108.981 70.0443 108.365 70.623C107.759 71.2016 106.984 71.491 106.041 71.491C105.089 71.491 104.305 71.2016 103.689 70.623C103.083 70.0443 102.779 69.2976 102.779 68.383ZM112.359 64.197V66.087C112.592 65.2376 112.956 64.6636 113.451 64.365C113.955 64.0663 114.524 63.9916 115.159 64.141V65.541C114.384 65.3263 113.721 65.3963 113.171 65.751C112.629 66.0963 112.359 66.6143 112.359 67.305V71.351H110.889V64.197H112.359ZM118.791 64.057C119.65 64.057 120.35 64.281 120.891 64.729C121.433 65.177 121.703 65.821 121.703 66.661V71.351H120.233V69.447C119.795 70.8096 118.913 71.491 117.587 71.491C116.971 71.491 116.458 71.309 116.047 70.945C115.637 70.5716 115.431 70.0863 115.431 69.489C115.431 68.789 115.679 68.2663 116.173 67.921C116.668 67.5663 117.298 67.347 118.063 67.263L119.449 67.123C119.972 67.0763 120.233 66.843 120.233 66.423C120.233 66.0776 120.098 65.8023 119.827 65.597C119.566 65.3916 119.221 65.289 118.791 65.289C118.353 65.289 117.979 65.401 117.671 65.625C117.373 65.849 117.181 66.1756 117.097 66.605L115.641 66.255C115.772 65.583 116.122 65.051 116.691 64.659C117.261 64.2576 117.961 64.057 118.791 64.057ZM118.063 70.301C118.67 70.301 119.183 70.1003 119.603 69.699C120.023 69.2883 120.233 68.8123 120.233 68.271V67.879C120.121 68.0656 119.851 68.1823 119.421 68.229L118.063 68.397C117.709 68.4436 117.424 68.551 117.209 68.719C117.004 68.8776 116.901 69.097 116.901 69.377C116.901 69.657 117.004 69.881 117.209 70.049C117.424 70.217 117.709 70.301 118.063 70.301ZM123.831 65.499H122.305V64.197H123.831V61.873L125.301 61.411V64.197H127.317V65.499H125.301V68.803C125.301 69.2416 125.399 69.559 125.595 69.755C125.791 69.951 126.104 70.049 126.533 70.049H127.317V71.351H126.533C125.609 71.351 124.928 71.1363 124.489 70.707C124.05 70.2776 123.831 69.6196 123.831 68.733V65.499ZM133.001 64.057C133.925 64.057 134.695 64.4163 135.311 65.135C135.927 65.8443 136.235 66.7263 136.235 67.781C136.235 68.8356 135.927 69.7176 135.311 70.427C134.695 71.1363 133.925 71.491 133.001 71.491C132.329 71.491 131.741 71.295 131.237 70.903C130.743 70.5016 130.383 69.9603 130.159 69.279V74.151H128.689V64.197H130.159V66.269C130.383 65.5876 130.743 65.051 131.237 64.659C131.741 64.2576 132.329 64.057 133.001 64.057ZM132.511 70.133C133.127 70.133 133.645 69.909 134.065 69.461C134.495 69.0036 134.709 68.4436 134.709 67.781C134.709 67.109 134.495 66.549 134.065 66.101C133.645 65.6436 133.127 65.415 132.511 65.415C131.83 65.415 131.265 65.639 130.817 66.087C130.379 66.535 130.159 67.0996 130.159 67.781C130.159 68.453 130.379 69.013 130.817 69.461C131.265 69.909 131.83 70.133 132.511 70.133ZM140.543 64.057C141.402 64.057 142.102 64.281 142.643 64.729C143.185 65.177 143.455 65.821 143.455 66.661V71.351H141.985V69.447C141.547 70.8096 140.665 71.491 139.339 71.491C138.723 71.491 138.21 71.309 137.799 70.945C137.389 70.5716 137.183 70.0863 137.183 69.489C137.183 68.789 137.431 68.2663 137.925 67.921C138.42 67.5663 139.05 67.347 139.815 67.263L141.201 67.123C141.724 67.0763 141.985 66.843 141.985 66.423C141.985 66.0776 141.85 65.8023 141.579 65.597C141.318 65.3916 140.973 65.289 140.543 65.289C140.105 65.289 139.731 65.401 139.423 65.625C139.125 65.849 138.933 66.1756 138.849 66.605L137.393 66.255C137.524 65.583 137.874 65.051 138.443 64.659C139.013 64.2576 139.713 64.057 140.543 64.057ZM139.815 70.301C140.422 70.301 140.935 70.1003 141.355 69.699C141.775 69.2883 141.985 68.8123 141.985 68.271V67.879C141.873 68.0656 141.603 68.1823 141.173 68.229L139.815 68.397C139.461 68.4436 139.176 68.551 138.961 68.719C138.756 68.8776 138.653 69.097 138.653 69.377C138.653 69.657 138.756 69.881 138.961 70.049C139.176 70.217 139.461 70.301 139.815 70.301ZM150.697 69.307C150.697 69.8856 150.45 70.3756 149.955 70.777C149.46 71.169 148.83 71.4023 148.065 71.477C148.401 71.6356 148.653 71.8363 148.821 72.079C148.998 72.3216 149.087 72.5783 149.087 72.849C149.087 73.241 148.91 73.577 148.555 73.857C148.21 74.1463 147.729 74.291 147.113 74.291C146.814 74.291 146.516 74.2536 146.217 74.179L146.371 72.989C146.595 73.0263 146.744 73.045 146.819 73.045C147.09 73.045 147.3 72.9796 147.449 72.849C147.608 72.7276 147.687 72.5643 147.687 72.359C147.687 72.0416 147.524 71.7476 147.197 71.477C146.478 71.4116 145.895 71.2016 145.447 70.847C144.999 70.4923 144.724 70.0303 144.621 69.461L146.091 69.153C146.222 69.9183 146.744 70.301 147.659 70.301C148.126 70.301 148.499 70.2123 148.779 70.035C149.068 69.8483 149.213 69.615 149.213 69.335C149.213 69.0363 149.064 68.8123 148.765 68.663C148.466 68.5043 148.102 68.3923 147.673 68.327C147.244 68.2523 146.81 68.1636 146.371 68.061C145.942 67.9583 145.578 67.7576 145.279 67.459C144.98 67.151 144.831 66.7403 144.831 66.227C144.831 65.6016 145.097 65.0836 145.629 64.673C146.17 64.2623 146.847 64.057 147.659 64.057C148.471 64.057 149.134 64.239 149.647 64.603C150.17 64.967 150.482 65.4616 150.585 66.087L149.115 66.395C149.003 65.6296 148.518 65.247 147.659 65.247C147.267 65.247 146.945 65.331 146.693 65.499C146.441 65.667 146.315 65.8863 146.315 66.157C146.315 66.3996 146.422 66.5956 146.637 66.745C146.852 66.8943 147.122 66.9923 147.449 67.039C147.776 67.0856 148.126 67.1556 148.499 67.249C148.882 67.3423 149.236 67.4496 149.563 67.571C149.89 67.683 150.16 67.8883 150.375 68.187C150.59 68.4856 150.697 68.859 150.697 69.307ZM154.871 64.057C155.73 64.057 156.43 64.281 156.971 64.729C157.513 65.177 157.783 65.821 157.783 66.661V71.351H156.313V69.447C155.875 70.8096 154.993 71.491 153.667 71.491C153.051 71.491 152.538 71.309 152.127 70.945C151.717 70.5716 151.511 70.0863 151.511 69.489C151.511 68.789 151.759 68.2663 152.253 67.921C152.748 67.5663 153.378 67.347 154.143 67.263L155.529 67.123C156.052 67.0763 156.313 66.843 156.313 66.423C156.313 66.0776 156.178 65.8023 155.907 65.597C155.646 65.3916 155.301 65.289 154.871 65.289C154.433 65.289 154.059 65.401 153.751 65.625C153.453 65.849 153.261 66.1756 153.177 66.605L151.721 66.255C151.852 65.583 152.202 65.051 152.771 64.659C153.341 64.2576 154.041 64.057 154.871 64.057ZM154.143 70.301C154.75 70.301 155.263 70.1003 155.683 69.699C156.103 69.2883 156.313 68.8123 156.313 68.271V67.879C156.201 68.0656 155.931 68.1823 155.501 68.229L154.143 68.397C153.789 68.4436 153.504 68.551 153.289 68.719C153.084 68.8776 152.981 69.097 152.981 69.377C152.981 69.657 153.084 69.881 153.289 70.049C153.504 70.217 153.789 70.301 154.143 70.301Z" fill="black"/>
<circle cx="181.822" cy="13.7941" r="12.2344" fill="#2F83FF" stroke="url(#paint1_linear_1066_587)" stroke-width="2"/>
<path d="M180.222 15.0926H177.01V12.3206H180.222V9.08665H183.192V12.3206H186.426V15.0926H183.192V18.3266H180.222V15.0926Z" fill="#EBF3FF"/>
<defs>
<linearGradient id="paint0_linear_1066_587" x1="72.1993" y1="-29.0277" x2="47.3701" y2="133.011" gradientUnits="userSpaceOnUse">
<stop stop-color="#FFF6EC"/>
<stop offset="1" stop-color="white" stop-opacity="0.1"/>
</linearGradient>
<linearGradient id="paint1_linear_1066_587" x1="178.611" y1="-10.9892" x2="162.209" y2="35.9567" gradientUnits="userSpaceOnUse">
<stop stop-color="#FFF6EC"/>
<stop offset="1" stop-color="white" stop-opacity="0.1"/>
</linearGradient>
</defs>
</svg>
