<svg width="199" height="91" viewBox="0 0 199 91" fill="none" xmlns="http://www.w3.org/2000/svg">
<path d="M1.25391 37.3326C1.25391 30.2333 1.25603 25.0094 1.79416 21.0068C2.32843 17.033 3.37448 14.4131 5.35441 12.4331C7.33434 10.4532 9.95426 9.40717 13.9281 8.8729C17.9307 8.33477 23.1546 8.33264 30.2539 8.33264H160.254C167.353 8.33264 172.577 8.33477 176.58 8.8729C180.554 9.40717 183.173 10.4532 185.153 12.4331C187.133 14.4131 188.179 17.033 188.714 21.0068C189.252 25.0094 189.254 30.2333 189.254 37.3326V60.6664C189.254 67.7657 189.252 72.9896 188.714 76.9922C188.179 80.966 187.133 83.5859 185.153 85.5659C183.173 87.5458 180.554 88.5919 176.58 89.1261C172.577 89.6643 167.353 89.6664 160.254 89.6664H30.2539C23.1546 89.6664 17.9307 89.6643 13.9281 89.1261C9.95426 88.5919 7.33434 87.5458 5.35441 85.5659C3.37448 83.5859 2.32843 80.966 1.79416 76.9922C1.25603 72.9896 1.25391 67.7657 1.25391 60.6664V37.3326Z" fill="white" fill-opacity="0.3" stroke="url(#paint0_linear_1066_590)" stroke-width="2"/>
<path d="M40.9479 24.2039V39.6039H37.9779V25.0179L35.2279 39.6039H29.6619L26.9119 24.9079V39.6039H23.9419V24.2039H29.7499L32.4779 38.7899L35.2279 24.2039H40.9479ZM49.208 28.0319C51.1147 28.0319 52.64 28.7212 53.784 30.0999C54.9427 31.4639 55.368 33.0919 55.06 34.9839H46.304C46.5094 35.6732 46.8834 36.2305 47.426 36.6559C47.9834 37.0665 48.6434 37.2719 49.406 37.2719C50.6967 37.2719 51.6354 36.7439 52.222 35.6879L54.664 36.7879C54.1507 37.7119 53.4247 38.4525 52.486 39.0099C51.562 39.5525 50.506 39.8239 49.318 39.8239C47.5874 39.8239 46.1427 39.2592 44.984 38.1299C43.8254 37.0005 43.246 35.5999 43.246 33.9279C43.246 32.2559 43.818 30.8552 44.962 29.7259C46.106 28.5965 47.5214 28.0319 49.208 28.0319ZM49.208 30.5839C48.548 30.5839 47.954 30.7819 47.426 31.1779C46.9127 31.5592 46.5534 32.0725 46.348 32.7179H52.09C51.8847 32.0725 51.5254 31.5592 51.012 31.1779C50.4987 30.7819 49.8974 30.5839 49.208 30.5839ZM64.2638 28.0319C65.6718 28.0319 66.8378 28.5965 67.7618 29.7259C68.6858 30.8552 69.1478 32.2559 69.1478 33.9279C69.1478 35.5999 68.6858 37.0005 67.7618 38.1299C66.8378 39.2592 65.6718 39.8239 64.2638 39.8239C63.2664 39.8239 62.4011 39.5159 61.6678 38.8999C60.9491 38.2692 60.4211 37.4185 60.0838 36.3479V44.0039H57.1138V28.2519H60.0838V31.5079C60.4211 30.4372 60.9491 29.5939 61.6678 28.9779C62.4011 28.3472 63.2664 28.0319 64.2638 28.0319ZM63.1858 37.1179C63.9924 37.1179 64.6744 36.8172 65.2318 36.2159C65.7891 35.5999 66.0678 34.8372 66.0678 33.9279C66.0678 33.0332 65.7891 32.2852 65.2318 31.6839C64.6744 31.0679 63.9924 30.7599 63.1858 30.7599C62.2911 30.7599 61.5504 31.0605 60.9638 31.6619C60.3771 32.2632 60.0838 33.0185 60.0838 33.9279C60.0838 34.8372 60.3771 35.5999 60.9638 36.2159C61.5504 36.8172 62.2911 37.1179 63.1858 37.1179ZM72.3337 38.1299C71.175 37.0005 70.5957 35.5999 70.5957 33.9279C70.5957 32.2559 71.175 30.8552 72.3337 29.7259C73.4923 28.5965 74.937 28.0319 76.6677 28.0319C77.885 28.0319 78.9777 28.3472 79.9457 28.9779C80.9137 29.6085 81.6397 30.4959 82.1237 31.6399L79.3957 32.5859C79.1463 31.9992 78.7797 31.5519 78.2957 31.2439C77.8117 30.9212 77.269 30.7599 76.6677 30.7599C75.817 30.7599 75.1057 31.0679 74.5337 31.6839C73.9617 32.2852 73.6757 33.0332 73.6757 33.9279C73.6757 34.8372 73.9617 35.5999 74.5337 36.2159C75.1057 36.8172 75.817 37.1179 76.6677 37.1179C77.269 37.1179 77.8117 36.9565 78.2957 36.6339C78.7797 36.3112 79.1463 35.8565 79.3957 35.2699L82.1237 36.2159C81.6397 37.3599 80.9137 38.2472 79.9457 38.8779C78.9777 39.5085 77.885 39.8239 76.6677 39.8239C74.937 39.8239 73.4923 39.2592 72.3337 38.1299ZM86.6773 39.0319L89.7573 28.2519H95.1473V39.6039H92.3533V28.9119L89.2733 39.6039H83.8833V28.2519H86.6773V39.0319ZM100.496 39.6039H97.5259V28.2519H100.496V32.6299H105.644V28.2519H108.614V39.6039H105.644V35.2259H100.496V39.6039Z" fill="white"/>
<path d="M2.25391 50.123L188.252 50.1231" stroke="white" stroke-opacity="0.46"/>
<path d="M32.7919 71.351H31.1399L30.2999 68.985H25.3019L24.4619 71.351H22.8799L26.4639 61.551H29.2079L32.7919 71.351ZM27.8079 61.999L25.8059 67.599H29.7959L27.8079 61.999ZM37.3221 67.179L40.6261 71.351H38.7641L36.3281 68.271L35.2081 69.475V71.351H33.7381V60.991H35.2081V67.543L38.2321 64.197H40.0801L37.3221 67.179ZM46.6845 66.269V60.991H48.1545V71.351H46.6845V69.279C46.4605 69.9603 46.0965 70.5017 45.5925 70.903C45.0978 71.295 44.5145 71.491 43.8425 71.491C42.9185 71.491 42.1485 71.1363 41.5325 70.427C40.9165 69.7177 40.6085 68.8357 40.6085 67.781C40.6085 66.7263 40.9165 65.8443 41.5325 65.135C42.1485 64.4163 42.9185 64.057 43.8425 64.057C44.5145 64.057 45.0978 64.2577 45.5925 64.659C46.0965 65.051 46.4605 65.5877 46.6845 66.269ZM44.3325 70.133C45.0138 70.133 45.5738 69.909 46.0125 69.461C46.4605 69.013 46.6845 68.453 46.6845 67.781C46.6845 67.0997 46.4605 66.535 46.0125 66.087C45.5738 65.639 45.0138 65.415 44.3325 65.415C43.7165 65.415 43.1938 65.6437 42.7645 66.101C42.3352 66.549 42.1205 67.109 42.1205 67.781C42.1205 68.4437 42.3352 69.0037 42.7645 69.461C43.1938 69.909 43.7165 70.133 44.3325 70.133ZM53.2466 64.057C54.3946 64.057 55.3279 64.4677 56.0466 65.289C56.7652 66.1103 57.0592 67.1043 56.9286 68.271H51.0066C51.1092 68.8497 51.3752 69.321 51.8046 69.685C52.2339 70.0397 52.7519 70.217 53.3586 70.217C53.8252 70.217 54.2406 70.105 54.6046 69.881C54.9779 69.6477 55.2672 69.335 55.4726 68.943L56.7046 69.489C56.3872 70.0957 55.9346 70.581 55.3466 70.945C54.7586 71.309 54.0819 71.491 53.3166 71.491C52.2432 71.491 51.3426 71.1363 50.6146 70.427C49.8866 69.7177 49.5226 68.8357 49.5226 67.781C49.5226 66.7263 49.8772 65.8443 50.5866 65.135C51.3052 64.4163 52.1919 64.057 53.2466 64.057ZM53.2466 65.331C52.7052 65.331 52.2339 65.499 51.8326 65.835C51.4406 66.1617 51.1792 66.591 51.0486 67.123H55.4446C55.3232 66.591 55.0619 66.1617 54.6606 65.835C54.2686 65.499 53.7972 65.331 53.2466 65.331ZM62.3795 64.057C63.1915 64.057 63.8542 64.3417 64.3675 64.911C64.8808 65.4803 65.1375 66.2037 65.1375 67.081V71.351H63.6675V67.305C63.6675 66.7543 63.4902 66.3017 63.1355 65.947C62.7808 65.583 62.3422 65.401 61.8195 65.401C61.2315 65.401 60.7508 65.583 60.3775 65.947C60.0042 66.3017 59.8175 66.7543 59.8175 67.305V71.351H58.3475V64.197H59.8175V66.045C60.0135 65.429 60.3355 64.9437 60.7835 64.589C61.2408 64.2343 61.7728 64.057 62.3795 64.057ZM66.8123 62.783C66.635 62.6057 66.5463 62.391 66.5463 62.139C66.5463 61.887 66.635 61.6723 66.8123 61.495C66.999 61.3177 67.2183 61.229 67.4703 61.229C67.7223 61.229 67.937 61.3177 68.1143 61.495C68.2917 61.6723 68.3803 61.887 68.3803 62.139C68.3803 62.391 68.2917 62.6057 68.1143 62.783C67.937 62.9603 67.7223 63.049 67.4703 63.049C67.2183 63.049 66.999 62.9603 66.8123 62.783ZM68.1983 71.351H66.7283V64.197H68.1983V71.351ZM69.7195 64.197H75.6835V66.605L70.1395 70.049H75.6835V71.351H69.7195V68.943L75.2775 65.499H69.7195V64.197ZM78.0407 69.475C78.4327 69.475 78.75 69.6337 78.9927 69.951C79.2447 70.259 79.3707 70.637 79.3707 71.085C79.3707 71.6823 79.2167 72.2003 78.9087 72.639C78.6007 73.087 78.176 73.4277 77.6347 73.661L77.0327 72.863C77.4807 72.667 77.798 72.4337 77.9847 72.163C78.1807 71.8923 78.2693 71.6217 78.2507 71.351C77.952 71.435 77.672 71.393 77.4107 71.225C77.1587 71.057 77.0327 70.805 77.0327 70.469C77.0327 70.1983 77.1307 69.965 77.3267 69.769C77.5227 69.573 77.7607 69.475 78.0407 69.475ZM92.8412 61.551L89.1172 67.963V69.965H90.8812V71.351H85.8132V69.965H87.5772V67.963L83.8532 61.551H85.6732L88.3892 66.437L91.1052 61.551H92.8412ZM95.8618 64.057C97.0098 64.057 97.9431 64.4677 98.6618 65.289C99.3805 66.1103 99.6745 67.1043 99.5438 68.271H93.6218C93.7245 68.8497 93.9905 69.321 94.4198 69.685C94.8491 70.0397 95.3671 70.217 95.9738 70.217C96.4405 70.217 96.8558 70.105 97.2198 69.881C97.5931 69.6477 97.8825 69.335 98.0878 68.943L99.3198 69.489C99.0025 70.0957 98.5498 70.581 97.9618 70.945C97.3738 71.309 96.6971 71.491 95.9318 71.491C94.8585 71.491 93.9578 71.1363 93.2298 70.427C92.5018 69.7177 92.1378 68.8357 92.1378 67.781C92.1378 66.7263 92.4925 65.8443 93.2018 65.135C93.9205 64.4163 94.8071 64.057 95.8618 64.057ZM95.8618 65.331C95.3205 65.331 94.8491 65.499 94.4478 65.835C94.0558 66.1617 93.7945 66.591 93.6638 67.123H98.0598C97.9385 66.591 97.6771 66.1617 97.2758 65.835C96.8838 65.499 96.4125 65.331 95.8618 65.331ZM104.995 64.057C105.807 64.057 106.469 64.3417 106.983 64.911C107.496 65.4803 107.753 66.2037 107.753 67.081V71.351H106.283V67.305C106.283 66.7543 106.105 66.3017 105.751 65.947C105.396 65.583 104.957 65.401 104.435 65.401C103.847 65.401 103.366 65.583 102.993 65.947C102.619 66.3017 102.433 66.7543 102.433 67.305V71.351H100.963V64.197H102.433V66.045C102.629 65.429 102.951 64.9437 103.399 64.589C103.856 64.2343 104.388 64.057 104.995 64.057ZM109.428 62.783C109.25 62.6057 109.162 62.391 109.162 62.139C109.162 61.887 109.25 61.6723 109.428 61.495C109.614 61.3177 109.834 61.229 110.086 61.229C110.338 61.229 110.552 61.3177 110.73 61.495C110.907 61.6723 110.996 61.887 110.996 62.139C110.996 62.391 110.907 62.6057 110.73 62.783C110.552 62.9603 110.338 63.049 110.086 63.049C109.834 63.049 109.614 62.9603 109.428 62.783ZM110.814 71.351H109.344V64.197H110.814V71.351ZM118.117 69.307C118.117 69.8857 117.869 70.3757 117.375 70.777C116.88 71.169 116.25 71.4023 115.485 71.477C115.821 71.6357 116.073 71.8363 116.241 72.079C116.418 72.3217 116.507 72.5783 116.507 72.849C116.507 73.241 116.329 73.577 115.975 73.857C115.629 74.1463 115.149 74.291 114.533 74.291C114.234 74.291 113.935 74.2537 113.637 74.179L113.791 72.989C114.015 73.0263 114.164 73.045 114.239 73.045C114.509 73.045 114.719 72.9797 114.869 72.849C115.027 72.7277 115.107 72.5643 115.107 72.359C115.107 72.0417 114.943 71.7477 114.617 71.477C113.898 71.4117 113.315 71.2017 112.867 70.847C112.419 70.4923 112.143 70.0303 112.041 69.461L113.511 69.153C113.641 69.9183 114.164 70.301 115.079 70.301C115.545 70.301 115.919 70.2123 116.199 70.035C116.488 69.8483 116.633 69.615 116.633 69.335C116.633 69.0363 116.483 68.8123 116.185 68.663C115.886 68.5043 115.522 68.3923 115.093 68.327C114.663 68.2523 114.229 68.1637 113.791 68.061C113.361 67.9583 112.997 67.7577 112.699 67.459C112.4 67.151 112.251 66.7403 112.251 66.227C112.251 65.6017 112.517 65.0837 113.049 64.673C113.59 64.2623 114.267 64.057 115.079 64.057C115.891 64.057 116.553 64.239 117.067 64.603C117.589 64.967 117.902 65.4617 118.005 66.087L116.535 66.395C116.423 65.6297 115.937 65.247 115.079 65.247C114.687 65.247 114.365 65.331 114.113 65.499C113.861 65.667 113.735 65.8863 113.735 66.157C113.735 66.3997 113.842 66.5957 114.057 66.745C114.271 66.8943 114.542 66.9923 114.869 67.039C115.195 67.0857 115.545 67.1557 115.919 67.249C116.301 67.3423 116.656 67.4497 116.983 67.571C117.309 67.683 117.58 67.8883 117.795 68.187C118.009 68.4857 118.117 68.859 118.117 69.307ZM122.795 64.057C123.943 64.057 124.877 64.4677 125.595 65.289C126.314 66.1103 126.608 67.1043 126.477 68.271H120.555C120.658 68.8497 120.924 69.321 121.353 69.685C121.783 70.0397 122.301 70.217 122.907 70.217C123.374 70.217 123.789 70.105 124.153 69.881C124.527 69.6477 124.816 69.335 125.021 68.943L126.253 69.489C125.936 70.0957 125.483 70.581 124.895 70.945C124.307 71.309 123.631 71.491 122.865 71.491C121.792 71.491 120.891 71.1363 120.163 70.427C119.435 69.7177 119.071 68.8357 119.071 67.781C119.071 66.7263 119.426 65.8443 120.135 65.135C120.854 64.4163 121.741 64.057 122.795 64.057ZM122.795 65.331C122.254 65.331 121.783 65.499 121.381 65.835C120.989 66.1617 120.728 66.591 120.597 67.123H124.993C124.872 66.591 124.611 66.1617 124.209 65.835C123.817 65.499 123.346 65.331 122.795 65.331ZM131.928 64.057C132.74 64.057 133.403 64.3417 133.916 64.911C134.43 65.4803 134.686 66.2037 134.686 67.081V71.351H133.216V67.305C133.216 66.7543 133.039 66.3017 132.684 65.947C132.33 65.583 131.891 65.401 131.368 65.401C130.78 65.401 130.3 65.583 129.926 65.947C129.553 66.3017 129.366 66.7543 129.366 67.305V71.351H127.896V60.991H129.366V66.045C129.562 65.429 129.884 64.9437 130.332 64.589C130.79 64.2343 131.322 64.057 131.928 64.057ZM136.361 62.783C136.184 62.6057 136.095 62.391 136.095 62.139C136.095 61.887 136.184 61.6723 136.361 61.495C136.548 61.3177 136.767 61.229 137.019 61.229C137.271 61.229 137.486 61.3177 137.663 61.495C137.841 61.6723 137.929 61.887 137.929 62.139C137.929 62.391 137.841 62.6057 137.663 62.783C137.486 62.9603 137.271 63.049 137.019 63.049C136.767 63.049 136.548 62.9603 136.361 62.783ZM137.747 71.351H136.277V64.197H137.747V71.351ZM140.864 64.197V66.087C141.098 65.2377 141.462 64.6637 141.956 64.365C142.46 64.0663 143.03 63.9917 143.664 64.141V65.541C142.89 65.3263 142.227 65.3963 141.676 65.751C141.135 66.0963 140.864 66.6143 140.864 67.305V71.351H139.394V64.197H140.864Z" fill="black"/>
<circle cx="184.975" cy="13.7941" r="12.2344" fill="#2F83FF" stroke="url(#paint1_linear_1066_590)" stroke-width="2"/>
<path d="M183.375 15.0926H180.163V12.3206H183.375V9.08665H186.345V12.3206H189.579V15.0926H186.345V18.3266H183.375V15.0926Z" fill="#EBF3FF"/>
<defs>
<linearGradient id="paint0_linear_1066_590" x1="72.1993" y1="-29.0277" x2="47.3701" y2="133.011" gradientUnits="userSpaceOnUse">
<stop stop-color="#FFF6EC"/>
<stop offset="1" stop-color="white" stop-opacity="0.1"/>
</linearGradient>
<linearGradient id="paint1_linear_1066_590" x1="181.763" y1="-10.9892" x2="165.362" y2="35.9567" gradientUnits="userSpaceOnUse">
<stop stop-color="#FFF6EC"/>
<stop offset="1" stop-color="white" stop-opacity="0.1"/>
</linearGradient>
</defs>
</svg>
