<svg width="200" height="91" viewBox="0 0 200 91" fill="none" xmlns="http://www.w3.org/2000/svg">
<g clip-path="url(#clip0_750_7809)">
<path d="M1.75391 37.333C1.75391 30.2337 1.75603 25.0098 2.29416 21.0072C2.82843 17.0334 3.87448 14.4135 5.85441 12.4335C7.83434 10.4536 10.4543 9.40754 14.4281 8.87327C18.4307 8.33514 23.6546 8.33301 30.7539 8.33301H160.754C167.853 8.33301 173.077 8.33514 177.08 8.87327C181.054 9.40754 183.673 10.4536 185.653 12.4335C187.633 14.4135 188.679 17.0334 189.214 21.0072C189.752 25.0098 189.754 30.2337 189.754 37.333V60.6668C189.754 67.7661 189.752 72.99 189.214 76.9926C188.679 80.9664 187.633 83.5863 185.653 85.5663C183.673 87.5462 181.054 88.5923 177.08 89.1265C173.077 89.6647 167.853 89.6668 160.754 89.6668H30.7539C23.6546 89.6668 18.4307 89.6647 14.4281 89.1265C10.4543 88.5923 7.83434 87.5462 5.85441 85.5663C3.87448 83.5863 2.82843 80.9664 2.29416 76.9926C1.75603 72.99 1.75391 67.7661 1.75391 60.6668V37.333Z" fill="white" fill-opacity="0.3" stroke="url(#paint0_linear_750_7809)" stroke-width="2"/>
<path d="M41.4479 24.2041V39.6041H38.4779V25.0181L35.7279 39.6041H30.1619L27.4119 24.9081V39.6041H24.4419V24.2041H30.2499L32.9779 38.7901L35.7279 24.2041H41.4479ZM49.708 28.0321C51.6147 28.0321 53.14 28.7214 54.284 30.1001C55.4427 31.4641 55.868 33.0921 55.56 34.9841H46.804C47.0094 35.6734 47.3834 36.2307 47.926 36.6561C48.4834 37.0667 49.1434 37.2721 49.906 37.2721C51.1967 37.2721 52.1354 36.7441 52.722 35.6881L55.164 36.7881C54.6507 37.7121 53.9247 38.4527 52.986 39.0101C52.062 39.5527 51.006 39.8241 49.818 39.8241C48.0874 39.8241 46.6427 39.2594 45.484 38.1301C44.3254 37.0007 43.746 35.6001 43.746 33.9281C43.746 32.2561 44.318 30.8554 45.462 29.7261C46.606 28.5967 48.0214 28.0321 49.708 28.0321ZM49.708 30.5841C49.048 30.5841 48.454 30.7821 47.926 31.1781C47.4127 31.5594 47.0534 32.0727 46.848 32.7181H52.59C52.3847 32.0727 52.0254 31.5594 51.512 31.1781C50.9987 30.7821 50.3974 30.5841 49.708 30.5841ZM64.7638 28.0321C66.1718 28.0321 67.3378 28.5967 68.2618 29.7261C69.1858 30.8554 69.6478 32.2561 69.6478 33.9281C69.6478 35.6001 69.1858 37.0007 68.2618 38.1301C67.3378 39.2594 66.1718 39.8241 64.7638 39.8241C63.7664 39.8241 62.9011 39.5161 62.1678 38.9001C61.4491 38.2694 60.9211 37.4187 60.5838 36.3481V44.0041H57.6138V28.2521H60.5838V31.5081C60.9211 30.4374 61.4491 29.5941 62.1678 28.9781C62.9011 28.3474 63.7664 28.0321 64.7638 28.0321ZM63.6858 37.1181C64.4924 37.1181 65.1744 36.8174 65.7318 36.2161C66.2891 35.6001 66.5678 34.8374 66.5678 33.9281C66.5678 33.0334 66.2891 32.2854 65.7318 31.6841C65.1744 31.0681 64.4924 30.7601 63.6858 30.7601C62.7911 30.7601 62.0504 31.0607 61.4638 31.6621C60.8771 32.2634 60.5838 33.0187 60.5838 33.9281C60.5838 34.8374 60.8771 35.6001 61.4638 36.2161C62.0504 36.8174 62.7911 37.1181 63.6858 37.1181ZM72.8337 38.1301C71.675 37.0007 71.0957 35.6001 71.0957 33.9281C71.0957 32.2561 71.675 30.8554 72.8337 29.7261C73.9923 28.5967 75.437 28.0321 77.1677 28.0321C78.385 28.0321 79.4777 28.3474 80.4457 28.9781C81.4137 29.6087 82.1397 30.4961 82.6237 31.6401L79.8957 32.5861C79.6463 31.9994 79.2797 31.5521 78.7957 31.2441C78.3117 30.9214 77.769 30.7601 77.1677 30.7601C76.317 30.7601 75.6057 31.0681 75.0337 31.6841C74.4617 32.2854 74.1757 33.0334 74.1757 33.9281C74.1757 34.8374 74.4617 35.6001 75.0337 36.2161C75.6057 36.8174 76.317 37.1181 77.1677 37.1181C77.769 37.1181 78.3117 36.9567 78.7957 36.6341C79.2797 36.3114 79.6463 35.8567 79.8957 35.2701L82.6237 36.2161C82.1397 37.3601 81.4137 38.2474 80.4457 38.8781C79.4777 39.5087 78.385 39.8241 77.1677 39.8241C75.437 39.8241 73.9923 39.2594 72.8337 38.1301ZM87.1773 39.0321L90.2573 28.2521H95.6473V39.6041H92.8533V28.9121L89.7733 39.6041H84.3833V28.2521H87.1773V39.0321ZM100.996 39.6041H98.0259V28.2521H100.996V32.6301H106.144V28.2521H109.114V39.6041H106.144V35.2261H100.996V39.6041Z" fill="white"/>
<path d="M2.75391 50.123L188.752 50.1231" stroke="white" stroke-opacity="0.46"/>
<path d="M33.2919 71.3512H31.6399L30.7999 68.9852H25.8019L24.9619 71.3512H23.3799L26.9639 61.5512H29.7079L33.2919 71.3512ZM28.3079 61.9992L26.3059 67.5992H30.2959L28.3079 61.9992ZM37.8221 67.1792L41.1261 71.3512H39.2641L36.8281 68.2712L35.7081 69.4752V71.3512H34.2381V60.9912H35.7081V67.5432L38.7321 64.1972H40.5801L37.8221 67.1792ZM47.1845 66.2692V60.9912H48.6545V71.3512H47.1845V69.2792C46.9605 69.9605 46.5965 70.5019 46.0925 70.9032C45.5978 71.2952 45.0145 71.4912 44.3425 71.4912C43.4185 71.4912 42.6485 71.1365 42.0325 70.4272C41.4165 69.7179 41.1085 68.8359 41.1085 67.7812C41.1085 66.7265 41.4165 65.8445 42.0325 65.1352C42.6485 64.4165 43.4185 64.0572 44.3425 64.0572C45.0145 64.0572 45.5978 64.2579 46.0925 64.6592C46.5965 65.0512 46.9605 65.5879 47.1845 66.2692ZM44.8325 70.1332C45.5138 70.1332 46.0738 69.9092 46.5125 69.4612C46.9605 69.0132 47.1845 68.4532 47.1845 67.7812C47.1845 67.0999 46.9605 66.5352 46.5125 66.0872C46.0738 65.6392 45.5138 65.4152 44.8325 65.4152C44.2165 65.4152 43.6938 65.6439 43.2645 66.1012C42.8352 66.5492 42.6205 67.1092 42.6205 67.7812C42.6205 68.4439 42.8352 69.0039 43.2645 69.4612C43.6938 69.9092 44.2165 70.1332 44.8325 70.1332ZM53.7466 64.0572C54.8946 64.0572 55.8279 64.4679 56.5466 65.2892C57.2652 66.1105 57.5592 67.1045 57.4286 68.2712H51.5066C51.6092 68.8499 51.8752 69.3212 52.3046 69.6852C52.7339 70.0399 53.2519 70.2172 53.8586 70.2172C54.3252 70.2172 54.7406 70.1052 55.1046 69.8812C55.4779 69.6479 55.7672 69.3352 55.9726 68.9432L57.2046 69.4892C56.8872 70.0959 56.4346 70.5812 55.8466 70.9452C55.2586 71.3092 54.5819 71.4912 53.8166 71.4912C52.7432 71.4912 51.8426 71.1365 51.1146 70.4272C50.3866 69.7179 50.0226 68.8359 50.0226 67.7812C50.0226 66.7265 50.3772 65.8445 51.0866 65.1352C51.8052 64.4165 52.6919 64.0572 53.7466 64.0572ZM53.7466 65.3312C53.2052 65.3312 52.7339 65.4992 52.3326 65.8352C51.9406 66.1619 51.6792 66.5912 51.5486 67.1232H55.9446C55.8232 66.5912 55.5619 66.1619 55.1606 65.8352C54.7686 65.4992 54.2972 65.3312 53.7466 65.3312ZM62.8795 64.0572C63.6915 64.0572 64.3542 64.3419 64.8675 64.9112C65.3808 65.4805 65.6375 66.2039 65.6375 67.0812V71.3512H64.1675V67.3052C64.1675 66.7545 63.9902 66.3019 63.6355 65.9472C63.2808 65.5832 62.8422 65.4012 62.3195 65.4012C61.7315 65.4012 61.2508 65.5832 60.8775 65.9472C60.5042 66.3019 60.3175 66.7545 60.3175 67.3052V71.3512H58.8475V64.1972H60.3175V66.0452C60.5135 65.4292 60.8355 64.9439 61.2835 64.5892C61.7408 64.2345 62.2728 64.0572 62.8795 64.0572ZM67.3123 62.7832C67.135 62.6059 67.0463 62.3912 67.0463 62.1392C67.0463 61.8872 67.135 61.6725 67.3123 61.4952C67.499 61.3179 67.7183 61.2292 67.9703 61.2292C68.2223 61.2292 68.437 61.3179 68.6143 61.4952C68.7917 61.6725 68.8803 61.8872 68.8803 62.1392C68.8803 62.3912 68.7917 62.6059 68.6143 62.7832C68.437 62.9605 68.2223 63.0492 67.9703 63.0492C67.7183 63.0492 67.499 62.9605 67.3123 62.7832ZM68.6983 71.3512H67.2283V64.1972H68.6983V71.3512ZM70.2195 64.1972H76.1835V66.6052L70.6395 70.0492H76.1835V71.3512H70.2195V68.9432L75.7775 65.4992H70.2195V64.1972ZM78.5407 69.4752C78.9327 69.4752 79.25 69.6339 79.4927 69.9512C79.7447 70.2592 79.8707 70.6372 79.8707 71.0852C79.8707 71.6825 79.7167 72.2005 79.4087 72.6392C79.1007 73.0872 78.676 73.4279 78.1347 73.6612L77.5327 72.8632C77.9807 72.6672 78.298 72.4339 78.4847 72.1632C78.6807 71.8925 78.7693 71.6219 78.7507 71.3512C78.452 71.4352 78.172 71.3932 77.9107 71.2252C77.6587 71.0572 77.5327 70.8052 77.5327 70.4692C77.5327 70.1985 77.6307 69.9652 77.8267 69.7692C78.0227 69.5732 78.2607 69.4752 78.5407 69.4752ZM93.3412 61.5512L89.6172 67.9632V69.9652H91.3812V71.3512H86.3132V69.9652H88.0772V67.9632L84.3532 61.5512H86.1732L88.8892 66.4372L91.6052 61.5512H93.3412ZM96.3618 64.0572C97.5098 64.0572 98.4431 64.4679 99.1618 65.2892C99.8805 66.1105 100.174 67.1045 100.044 68.2712H94.1218C94.2245 68.8499 94.4905 69.3212 94.9198 69.6852C95.3491 70.0399 95.8671 70.2172 96.4738 70.2172C96.9405 70.2172 97.3558 70.1052 97.7198 69.8812C98.0931 69.6479 98.3825 69.3352 98.5878 68.9432L99.8198 69.4892C99.5025 70.0959 99.0498 70.5812 98.4618 70.9452C97.8738 71.3092 97.1971 71.4912 96.4318 71.4912C95.3585 71.4912 94.4578 71.1365 93.7298 70.4272C93.0018 69.7179 92.6378 68.8359 92.6378 67.7812C92.6378 66.7265 92.9925 65.8445 93.7018 65.1352C94.4205 64.4165 95.3071 64.0572 96.3618 64.0572ZM96.3618 65.3312C95.8205 65.3312 95.3491 65.4992 94.9478 65.8352C94.5558 66.1619 94.2945 66.5912 94.1638 67.1232H98.5598C98.4385 66.5912 98.1771 66.1619 97.7758 65.8352C97.3838 65.4992 96.9125 65.3312 96.3618 65.3312ZM105.495 64.0572C106.307 64.0572 106.969 64.3419 107.483 64.9112C107.996 65.4805 108.253 66.2039 108.253 67.0812V71.3512H106.783V67.3052C106.783 66.7545 106.605 66.3019 106.251 65.9472C105.896 65.5832 105.457 65.4012 104.935 65.4012C104.347 65.4012 103.866 65.5832 103.493 65.9472C103.119 66.3019 102.933 66.7545 102.933 67.3052V71.3512H101.463V64.1972H102.933V66.0452C103.129 65.4292 103.451 64.9439 103.899 64.5892C104.356 64.2345 104.888 64.0572 105.495 64.0572ZM109.928 62.7832C109.75 62.6059 109.662 62.3912 109.662 62.1392C109.662 61.8872 109.75 61.6725 109.928 61.4952C110.114 61.3179 110.334 61.2292 110.586 61.2292C110.838 61.2292 111.052 61.3179 111.23 61.4952C111.407 61.6725 111.496 61.8872 111.496 62.1392C111.496 62.3912 111.407 62.6059 111.23 62.7832C111.052 62.9605 110.838 63.0492 110.586 63.0492C110.334 63.0492 110.114 62.9605 109.928 62.7832ZM111.314 71.3512H109.844V64.1972H111.314V71.3512ZM118.617 69.3072C118.617 69.8859 118.369 70.3759 117.875 70.7772C117.38 71.1692 116.75 71.4025 115.985 71.4772C116.321 71.6359 116.573 71.8365 116.741 72.0792C116.918 72.3219 117.007 72.5785 117.007 72.8492C117.007 73.2412 116.829 73.5772 116.475 73.8572C116.129 74.1465 115.649 74.2912 115.033 74.2912C114.734 74.2912 114.435 74.2539 114.137 74.1792L114.291 72.9892C114.515 73.0265 114.664 73.0452 114.739 73.0452C115.009 73.0452 115.219 72.9799 115.369 72.8492C115.527 72.7279 115.607 72.5645 115.607 72.3592C115.607 72.0419 115.443 71.7479 115.117 71.4772C114.398 71.4119 113.815 71.2019 113.367 70.8472C112.919 70.4925 112.643 70.0305 112.541 69.4612L114.011 69.1532C114.141 69.9185 114.664 70.3012 115.579 70.3012C116.045 70.3012 116.419 70.2125 116.699 70.0352C116.988 69.8485 117.133 69.6152 117.133 69.3352C117.133 69.0365 116.983 68.8125 116.685 68.6632C116.386 68.5045 116.022 68.3925 115.593 68.3272C115.163 68.2525 114.729 68.1639 114.291 68.0612C113.861 67.9585 113.497 67.7579 113.199 67.4592C112.9 67.1512 112.751 66.7405 112.751 66.2272C112.751 65.6019 113.017 65.0839 113.549 64.6732C114.09 64.2625 114.767 64.0572 115.579 64.0572C116.391 64.0572 117.053 64.2392 117.567 64.6032C118.089 64.9672 118.402 65.4619 118.505 66.0872L117.035 66.3952C116.923 65.6299 116.437 65.2472 115.579 65.2472C115.187 65.2472 114.865 65.3312 114.613 65.4992C114.361 65.6672 114.235 65.8865 114.235 66.1572C114.235 66.3999 114.342 66.5959 114.557 66.7452C114.771 66.8945 115.042 66.9925 115.369 67.0392C115.695 67.0859 116.045 67.1559 116.419 67.2492C116.801 67.3425 117.156 67.4499 117.483 67.5712C117.809 67.6832 118.08 67.8885 118.295 68.1872C118.509 68.4859 118.617 68.8592 118.617 69.3072ZM123.295 64.0572C124.443 64.0572 125.377 64.4679 126.095 65.2892C126.814 66.1105 127.108 67.1045 126.977 68.2712H121.055C121.158 68.8499 121.424 69.3212 121.853 69.6852C122.283 70.0399 122.801 70.2172 123.407 70.2172C123.874 70.2172 124.289 70.1052 124.653 69.8812C125.027 69.6479 125.316 69.3352 125.521 68.9432L126.753 69.4892C126.436 70.0959 125.983 70.5812 125.395 70.9452C124.807 71.3092 124.131 71.4912 123.365 71.4912C122.292 71.4912 121.391 71.1365 120.663 70.4272C119.935 69.7179 119.571 68.8359 119.571 67.7812C119.571 66.7265 119.926 65.8445 120.635 65.1352C121.354 64.4165 122.241 64.0572 123.295 64.0572ZM123.295 65.3312C122.754 65.3312 122.283 65.4992 121.881 65.8352C121.489 66.1619 121.228 66.5912 121.097 67.1232H125.493C125.372 66.5912 125.111 66.1619 124.709 65.8352C124.317 65.4992 123.846 65.3312 123.295 65.3312ZM132.428 64.0572C133.24 64.0572 133.903 64.3419 134.416 64.9112C134.93 65.4805 135.186 66.2039 135.186 67.0812V71.3512H133.716V67.3052C133.716 66.7545 133.539 66.3019 133.184 65.9472C132.83 65.5832 132.391 65.4012 131.868 65.4012C131.28 65.4012 130.8 65.5832 130.426 65.9472C130.053 66.3019 129.866 66.7545 129.866 67.3052V71.3512H128.396V60.9912H129.866V66.0452C130.062 65.4292 130.384 64.9439 130.832 64.5892C131.29 64.2345 131.822 64.0572 132.428 64.0572ZM136.861 62.7832C136.684 62.6059 136.595 62.3912 136.595 62.1392C136.595 61.8872 136.684 61.6725 136.861 61.4952C137.048 61.3179 137.267 61.2292 137.519 61.2292C137.771 61.2292 137.986 61.3179 138.163 61.4952C138.341 61.6725 138.429 61.8872 138.429 62.1392C138.429 62.3912 138.341 62.6059 138.163 62.7832C137.986 62.9605 137.771 63.0492 137.519 63.0492C137.267 63.0492 137.048 62.9605 136.861 62.7832ZM138.247 71.3512H136.777V64.1972H138.247V71.3512ZM141.364 64.1972V66.0872C141.598 65.2379 141.962 64.6639 142.456 64.3652C142.96 64.0665 143.53 63.9919 144.164 64.1412V65.5412C143.39 65.3265 142.727 65.3965 142.176 65.7512C141.635 66.0965 141.364 66.6145 141.364 67.3052V71.3512H139.894V64.1972H141.364Z" fill="black"/>
<path d="M185.475 26.0284C192.232 26.0284 197.709 20.5508 197.709 13.794C197.709 7.0371 192.232 1.55957 185.475 1.55957C178.718 1.55957 173.241 7.0371 173.241 13.794C173.241 20.5508 178.718 26.0284 185.475 26.0284Z" fill="#2F83FF" stroke="url(#paint1_linear_750_7809)" stroke-width="2"/>
<path d="M183.875 15.0929H180.663V12.3209H183.875V9.08691H186.845V12.3209H190.079V15.0929H186.845V18.3269H183.875V15.0929Z" fill="#EBF3FF"/>
<line x1="23" y1="75.5" x2="144" y2="75.5" stroke="black"/>
</g>
<defs>
<linearGradient id="paint0_linear_750_7809" x1="72.6993" y1="-29.0273" x2="47.8701" y2="133.011" gradientUnits="userSpaceOnUse">
<stop stop-color="#FFF6EC"/>
<stop offset="1" stop-color="white" stop-opacity="0.1"/>
</linearGradient>
<linearGradient id="paint1_linear_750_7809" x1="182.263" y1="-10.9893" x2="165.862" y2="35.9566" gradientUnits="userSpaceOnUse">
<stop stop-color="#FFF6EC"/>
<stop offset="1" stop-color="white" stop-opacity="0.1"/>
</linearGradient>
<clipPath id="clip0_750_7809">
<rect width="199" height="91" fill="white" transform="translate(0.5)"/>
</clipPath>
</defs>
</svg>
