<svg width="346" height="59" viewBox="0 0 346 59" fill="none" xmlns="http://www.w3.org/2000/svg"><path d="M.03 29.313c0-13.147 0-19.72 3.839-23.996q.539-.6 1.138-1.14C9.283.34 15.857.34 29.003.34h287.98c13.147 0 19.72 0 23.996 3.839q.6.539 1.139 1.139c3.839 4.275 3.839 10.849 3.839 23.996s0 19.72-3.839 23.996q-.539.6-1.139 1.139c-4.276 3.839-10.849 3.839-23.996 3.839H29.003c-13.146 0-19.72 0-23.996-3.84q-.6-.538-1.138-1.138C.029 49.033.029 42.459.029 29.313" fill="url(#a)"/><path d="M23.043 24.882h3.72v5.97q-.03 2.205-1.515 3.645-1.47 1.44-4.965 1.44-3.54 0-4.845-1.365-1.305-1.38-1.275-3.615v-6.075h3.72v5.835q0 .66.09 1.08.105.405.63.765.54.36 1.725.36 1.29 0 1.89-.36.6-.375.705-.825.12-.45.12-1.155zm4.919 9.615q.51-.765.84-1.425.345-.66.66-1.53 1.065.615 2.475.96t2.625.345q1.245 0 1.755-.21.51-.225.51-.48 0-.915-2.79-.915-3.06 0-4.44-.63-1.38-.645-1.38-2.07 0-2.025 1.68-2.985t4.365-.96q1.56 0 3.195.405 1.65.39 2.97 1.08-.435.99-.915 2.415-.09.3-.15.45-.765-.615-2.31-1.02-1.545-.42-2.73-.42-1.425 0-1.92.195-.495.18-.495.54t.675.585q.69.21 1.98.21 3.18 0 4.62.735 1.44.72 1.44 2.22 0 2.1-1.53 3.03-1.53.915-4.635.915-1.665 0-3.39-.36-1.725-.375-3.105-1.08m18.657-9.765q2.82 0 4.455.69 1.635.675 2.28 1.89.66 1.2.66 2.955 0 1.665-.75 2.91t-2.25 1.935q-1.5.675-3.69.675h-2.715q-1.38 0-2.79-.015.12-2.955.12-5.505 0-2.58-.12-5.385 1.785-.15 4.8-.15m1.125 8.07q1.395 0 1.86-.675t.465-1.86q0-1.14-.495-1.845-.48-.705-1.83-.705-1.455 0-2.175.09v4.995zm19.602-4.755q-2.355-.075-4.575-.09v7.83h-3.75v-7.83q-2.235.015-4.56.09v-3.15h12.885zm22.098-3.165h3.72v5.97q-.03 2.205-1.515 3.645-1.47 1.44-4.965 1.44-3.54 0-4.845-1.365-1.305-1.38-1.275-3.615v-6.075h3.72v5.835q0 .66.09 1.08.105.405.63.765.54.36 1.725.36 1.29 0 1.89-.36.6-.375.705-.825.12-.45.12-1.155zm4.919 9.615q.51-.765.84-1.425.345-.66.66-1.53 1.065.615 2.475.96t2.625.345q1.245 0 1.755-.21.51-.225.51-.48 0-.915-2.79-.915-3.06 0-4.44-.63-1.38-.645-1.38-2.07 0-2.025 1.68-2.985t4.365-.96q1.56 0 3.195.405 1.65.39 2.97 1.08-.435.99-.915 2.415-.09.3-.15.45-.765-.615-2.31-1.02-1.545-.42-2.73-.42-1.425 0-1.92.195-.495.18-.495.54t.675.585q.69.21 1.98.21 3.18 0 4.62.735 1.44.72 1.44 2.22 0 2.1-1.53 3.03-1.53.915-4.635.915-1.665 0-3.39-.36-1.725-.375-3.105-1.08m18.657-9.765q2.82 0 4.455.69 1.635.675 2.28 1.89.66 1.2.66 2.955 0 1.665-.75 2.91t-2.25 1.935q-1.5.675-3.69.675h-2.715q-1.38 0-2.79-.015.12-2.955.12-5.505 0-2.58-.12-5.385 1.785-.15 4.8-.15m1.125 8.07q1.395 0 1.86-.675t.465-1.86q0-1.14-.495-1.845-.48-.705-1.83-.705-1.455 0-2.175.09v4.995zm23.016.24q5.7-.03 8.265-.165-.105.615-.135 1.275-.015.645-.015 1.635h-11.655q.12-2.91.12-5.445t-.12-5.445h11.655v2.715h-8.115v1.44q.72.015 2.13.015 2.385 0 4.935-.09v2.58a140 140 0 0 0-7.065-.075zm18.348-8.16h3.72v5.97q-.03 2.205-1.515 3.645-1.47 1.44-4.965 1.44-3.54 0-4.845-1.365-1.305-1.38-1.275-3.615v-6.075h3.72v5.835q0 .66.09 1.08.105.405.63.765.54.36 1.725.36 1.29 0 1.89-.36.6-.375.705-.825.12-.45.12-1.155zm16.963 3.645q0 1.305-.645 2.205-.63.9-2.175 1.305.18.24.255.375l2.43 3.375h-4.08q-.66-1.23-2.085-3.48h-2.205v3.48h-3.54q.12-2.91.12-5.445t-.12-5.445h3.54v.015h3.075q3.03 0 4.23.975t1.2 2.64m-8.505-.735v1.71h2.025q1.275 0 1.92-.075.66-.09.915-.27t.255-.525a.6.6 0 0 0-.24-.51q-.24-.18-.9-.255t-1.95-.075zm34.599.255q-2.355-.075-4.575-.09v7.83h-3.75v-7.83q-2.235.015-4.56.09v-3.15h12.885zm13.252.48q0 1.305-.645 2.205-.63.9-2.175 1.305.18.24.255.375l2.43 3.375h-4.08q-.66-1.23-2.085-3.48h-2.205v3.48h-3.54q.12-2.91.12-5.445t-.12-5.445h3.54v.015h3.075q3.03 0 4.23.975t1.2 2.64m-8.505-.735v1.71h2.025q1.275 0 1.92-.075.66-.09.915-.27t.255-.525a.6.6 0 0 0-.24-.51q-.24-.18-.9-.255t-1.95-.075zm22.305-2.895-.285.435a170 170 0 0 0-2.76 4.41 43 43 0 0 0-1.905 3.51v2.535h-3.915v-2.79a25 25 0 0 0-1.305-2.31q-.75-1.2-2.13-3.285a81 81 0 0 1-1.65-2.505h4.2q.45.915 1.47 2.715 1.02 1.83 1.395 2.58.525-1.095 1.41-2.685 1.035-1.86 1.395-2.61zm24.857 3.63q0 1.305-.645 2.205-.63.9-2.175 1.305.18.24.255.375l2.43 3.375h-4.08q-.66-1.23-2.085-3.48h-2.205v3.48h-3.54q.12-2.91.12-5.445t-.12-5.445h3.54v.015h3.075q3.03 0 4.23.975t1.2 2.64m-8.505-.735v1.71h2.025q1.275 0 1.92-.075.66-.09.915-.27t.255-.525a.6.6 0 0 0-.24-.51q-.24-.18-.9-.255t-1.95-.075zm18.583-2.91h3.72v5.97q-.03 2.205-1.515 3.645-1.47 1.44-4.965 1.44-3.54 0-4.845-1.365-1.305-1.38-1.275-3.615v-6.075h3.72v5.835q0 .66.09 1.08.105.405.63.765.54.36 1.725.36 1.29 0 1.89-.36.6-.375.705-.825.12-.45.12-1.155zm13.708 5.49q3.42 0 3.42 2.175 0 1.02-.465 1.74-.465.705-1.665 1.11-1.2.39-3.33.39h-6.75q.12-2.91.12-5.445t-.12-5.445h3.525v.015h3.195q1.86 0 2.925.315 1.08.3 1.515.885.45.585.45 1.485 0 .915-.645 1.635-.63.705-2.175 1.14m-5.265-2.73v1.395h2.88q.93 0 1.29-.165.375-.165.375-.6 0-.345-.39-.48-.375-.15-1.275-.15zm2.88 5.4q.78 0 1.185-.06.42-.075.6-.24.18-.18.18-.48 0-.39-.435-.555-.42-.18-1.53-.18h-2.88v1.515zm26.84 2.745q-.705-1.275-2.34-3.9l-1.755 1.74v2.16h-3.735q.12-2.91.12-5.445t-.12-5.445h3.735v4.395q2.76-2.73 3.93-4.395h4.86l-4.725 4.68q1.05 1.47 2.355 3.195a105 105 0 0 0 2.385 3.015zm10.891-2.955q.855-.015 4.41-.12.45-.015 1.05-.045t1.335-.045q-.105.705-.135 1.41-.015.705-.015 1.755h-11.505v-3.345q.825-.465 1.8-1.14.975-.69 2.52-1.8 1.44-1.05 2.085-1.5-1.185.015-4.755.165-1.23.06-1.65.075 0-1.11-.03-1.86-.015-.75-.09-1.485h11.625v3.36q-.795.525-2.94 2.04-2.4 1.71-3.705 2.535m20.283-4.785q-2.355-.075-4.575-.09v7.83h-3.75v-7.83q-2.235.015-4.56.09v-3.15h12.885z" fill="#fff"/><circle cx="73.926" cy="29.996" r="2.5" fill="#fff"/><circle cx="126.539" cy="29.996" r="2.5" fill="#fff"/><circle cx="179.703" cy="29.996" r="2.5" fill="#fff"/><circle cx="230.934" cy="29.996" r="2.5" fill="#fff"/><circle cx="284.547" cy="29.996" r="2.5" fill="#fff"/><defs><linearGradient id="a" x1="46.977" y1="-27.67" x2="217.85" y2="163.95" gradientUnits="userSpaceOnUse"><stop stop-color="#FD8E0D"/><stop offset=".495" stop-color="#FFB053"/><stop offset="1" stop-color="#F3890E"/></linearGradient></defs></svg>